<svg xmlns="http://www.w3.org/2000/svg" width="231" height="91" viewBox="0 0 231 91"><g transform="translate(-1488 -3157)"><circle cx="5.5" cy="5.5" r="5.5" transform="translate(1708 3217)" fill="#fff"/><circle cx="5.5" cy="5.5" r="5.5" transform="translate(1508 3217)" fill="#fff"/><circle cx="5.5" cy="5.5" r="5.5" transform="translate(1527.851 3217)" fill="#fff"/><circle cx="5.5" cy="5.5" r="5.5" transform="translate(1548.05 3217)" fill="#fff"/><circle cx="5.5" cy="5.5" r="5.5" transform="translate(1568.248 3217)" fill="#fff"/><circle cx="5.5" cy="5.5" r="5.5" transform="translate(1587.901 3217)" fill="#fff"/><circle cx="5.5" cy="5.5" r="5.5" transform="translate(1608.099 3217)" fill="#fff"/><circle cx="5.5" cy="5.5" r="5.5" transform="translate(1627.752 3217)" fill="#fff"/><circle cx="5.5" cy="5.5" r="5.5" transform="translate(1647.95 3217)" fill="#fff"/><circle cx="5.5" cy="5.5" r="5.5" transform="translate(1668.149 3217)" fill="#fff"/><circle cx="5.5" cy="5.5" r="5.5" transform="translate(1488 3197)" fill="#fff"/><circle cx="5.5" cy="5.5" r="5.5" transform="translate(1508 3197)" fill="#fff"/><circle cx="5.5" cy="5.5" r="5.5" transform="translate(1527.851 3197)" fill="#fff"/><circle cx="5.5" cy="5.5" r="5.5" transform="translate(1548.05 3197)" fill="#fff"/><circle cx="5.5" cy="5.5" r="5.5" transform="translate(1568.248 3197)" fill="#fff"/><circle cx="5.5" cy="5.5" r="5.5" transform="translate(1587.901 3197)" fill="#fff"/><circle cx="5.5" cy="5.5" r="5.5" transform="translate(1608.099 3197)" fill="#fff"/><circle cx="5.5" cy="5.5" r="5.5" transform="translate(1627.752 3197)" fill="#fff"/><circle cx="5.5" cy="5.5" r="5.5" transform="translate(1647.95 3197)" fill="#fff"/><circle cx="5.5" cy="5.5" r="5.5" transform="translate(1668.149 3197)" fill="#fff"/><circle cx="5.5" cy="5.5" r="5.5" transform="translate(1488 3177)" fill="#fff"/><circle cx="5.5" cy="5.5" r="5.5" transform="translate(1508 3177)" fill="#fff"/><circle cx="5.5" cy="5.5" r="5.5" transform="translate(1527.851 3177)" fill="#fff"/><circle cx="5.5" cy="5.5" r="5.5" transform="translate(1548.05 3177)" fill="#fff"/><circle cx="5.5" cy="5.5" r="5.5" transform="translate(1568.248 3177)" fill="#fff"/><circle cx="5.5" cy="5.5" r="5.5" transform="translate(1587.901 3177)" fill="#fff"/><circle cx="5.5" cy="5.5" r="5.5" transform="translate(1608.099 3177)" fill="#fff"/><circle cx="5.5" cy="5.5" r="5.5" transform="translate(1627.752 3177)" fill="#fff"/><circle cx="5.5" cy="5.5" r="5.5" transform="translate(1647.95 3177)" fill="#fff"/><circle cx="5.5" cy="5.5" r="5.5" transform="translate(1668.149 3177)" fill="#fff"/><circle cx="5.5" cy="5.5" r="5.5" transform="translate(1568.248 3237)" fill="#fff"/><circle cx="5.5" cy="5.5" r="5.5" transform="translate(1627.752 3157)" fill="#fff"/><circle cx="5.5" cy="5.5" r="5.5" transform="translate(1647.95 3157)" fill="#fff"/><circle cx="5.5" cy="5.5" r="5.5" transform="translate(1527.851 3237)" fill="#fff"/><circle cx="5.5" cy="5.5" r="5.5" transform="translate(1548.05 3237)" fill="#fff"/><circle cx="5.5" cy="5.5" r="5.5" transform="translate(1708 3197)" fill="#fff"/><circle cx="5.5" cy="5.5" r="5.5" transform="translate(1668.149 3157)" fill="#fff"/><circle cx="5.5" cy="5.5" r="5.5" transform="translate(1688 3217)" fill="#fff"/><circle cx="5.5" cy="5.5" r="5.5" transform="translate(1688 3177)" fill="#fff"/><circle cx="5.5" cy="5.5" r="5.5" transform="translate(1608.099 3157)" fill="#fff"/><circle cx="5.5" cy="5.5" r="5.5" transform="translate(1688 3197)" fill="#fff"/><circle cx="5.5" cy="5.5" r="5.5" transform="translate(1587.901 3237)" fill="#fff"/><circle cx="5.5" cy="5.5" r="5.5" transform="translate(1608.099 3237)" fill="#fff"/><circle cx="5.5" cy="5.5" r="5.5" transform="translate(1627.752 3237)" fill="#fff"/><circle cx="5.5" cy="5.5" r="5.5" transform="translate(1647.95 3237)" fill="#fff"/><circle cx="5.5" cy="5.5" r="5.5" transform="translate(1668.149 3237)" fill="#fff"/><circle cx="5.5" cy="5.5" r="5.5" transform="translate(1587.901 3157)" fill="#fff"/></g></svg>