<svg xmlns="http://www.w3.org/2000/svg" width="151" height="171" viewBox="0 0 151 171"><g transform="translate(-1488 -3137)"><circle cx="5.5" cy="5.5" r="5.5" transform="translate(1628 3257)" fill="#fff"/><circle cx="5.5" cy="5.5" r="5.5" transform="translate(1548 3277)" fill="#fff"/><circle cx="5.5" cy="5.5" r="5.5" transform="translate(1488 3217)" fill="#fff"/><circle cx="5.5" cy="5.5" r="5.5" transform="translate(1588 3297)" fill="#fff"/><circle cx="5.5" cy="5.5" r="5.5" transform="translate(1628 3217)" fill="#fff"/><circle cx="5.5" cy="5.5" r="5.5" transform="translate(1608 3217)" fill="#fff"/><circle cx="5.5" cy="5.5" r="5.5" transform="translate(1588 3217)" fill="#fff"/><circle cx="5.5" cy="5.5" r="5.5" transform="translate(1568 3217)" fill="#fff"/><circle cx="5.5" cy="5.5" r="5.5" transform="translate(1548 3217)" fill="#fff"/><circle cx="5.5" cy="5.5" r="5.5" transform="translate(1528 3217)" fill="#fff"/><circle cx="5.5" cy="5.5" r="5.5" transform="translate(1588 3277)" fill="#fff"/><circle cx="5.5" cy="5.5" r="5.5" transform="translate(1568 3257)" fill="#fff"/><circle cx="5.5" cy="5.5" r="5.5" transform="translate(1528 3257)" fill="#fff"/><circle cx="5.5" cy="5.5" r="5.5" transform="translate(1628 3137)" fill="#fff"/><circle cx="5.5" cy="5.5" r="5.5" transform="translate(1628 3197)" fill="#fff"/><circle cx="5.5" cy="5.5" r="5.5" transform="translate(1608 3197)" fill="#fff"/><circle cx="5.5" cy="5.5" r="5.5" transform="translate(1588 3197)" fill="#fff"/><circle cx="5.5" cy="5.5" r="5.5" transform="translate(1568 3197)" fill="#fff"/><circle cx="5.5" cy="5.5" r="5.5" transform="translate(1548 3197)" fill="#fff"/><circle cx="5.5" cy="5.5" r="5.5" transform="translate(1528 3197)" fill="#fff"/><circle cx="5.5" cy="5.5" r="5.5" transform="translate(1608 3257)" fill="#fff"/><circle cx="5.5" cy="5.5" r="5.5" transform="translate(1548 3257)" fill="#fff"/><circle cx="5.5" cy="5.5" r="5.5" transform="translate(1508 3257)" fill="#fff"/><circle cx="5.5" cy="5.5" r="5.5" transform="translate(1608 3137)" fill="#fff"/><circle cx="5.5" cy="5.5" r="5.5" transform="translate(1628 3177)" fill="#fff"/><circle cx="5.5" cy="5.5" r="5.5" transform="translate(1608 3177)" fill="#fff"/><circle cx="5.5" cy="5.5" r="5.5" transform="translate(1588 3177)" fill="#fff"/><circle cx="5.5" cy="5.5" r="5.5" transform="translate(1568 3177)" fill="#fff"/><circle cx="5.5" cy="5.5" r="5.5" transform="translate(1548 3177)" fill="#fff"/><circle cx="5.5" cy="5.5" r="5.5" transform="translate(1528 3177)" fill="#fff"/><circle cx="5.5" cy="5.5" r="5.5" transform="translate(1588 3257)" fill="#fff"/><circle cx="5.5" cy="5.5" r="5.5" transform="translate(1508 3237)" fill="#fff"/><circle cx="5.5" cy="5.5" r="5.5" transform="translate(1488 3177)" fill="#fff"/><circle cx="5.5" cy="5.5" r="5.5" transform="translate(1488 3197)" fill="#fff"/><circle cx="5.5" cy="5.5" r="5.5" transform="translate(1628 3157)" fill="#fff"/><circle cx="5.5" cy="5.5" r="5.5" transform="translate(1608 3157)" fill="#fff"/><circle cx="5.5" cy="5.5" r="5.5" transform="translate(1588 3157)" fill="#fff"/><circle cx="5.5" cy="5.5" r="5.5" transform="translate(1568 3157)" fill="#fff"/><circle cx="5.5" cy="5.5" r="5.5" transform="translate(1548 3157)" fill="#fff"/><circle cx="5.5" cy="5.5" r="5.5" transform="translate(1528 3157)" fill="#fff"/><circle cx="5.5" cy="5.5" r="5.5" transform="translate(1608 3237)" fill="#fff"/><circle cx="5.5" cy="5.5" r="5.5" transform="translate(1588 3237)" fill="#fff"/><circle cx="5.5" cy="5.5" r="5.5" transform="translate(1568 3237)" fill="#fff"/><circle cx="5.5" cy="5.5" r="5.5" transform="translate(1548 3237)" fill="#fff"/><circle cx="5.5" cy="5.5" r="5.5" transform="translate(1528 3237)" fill="#fff"/><circle cx="5.5" cy="5.5" r="5.5" transform="translate(1508 3217)" fill="#fff"/><circle cx="5.5" cy="5.5" r="5.5" transform="translate(1508 3197)" fill="#fff"/><circle cx="5.5" cy="5.5" r="5.5" transform="translate(1508 3177)" fill="#fff"/><circle cx="5.5" cy="5.5" r="5.5" transform="translate(1568 3277)" fill="#fff"/><circle cx="5.5" cy="5.5" r="5.5" transform="translate(1528 3277)" fill="#fff"/><circle cx="5.5" cy="5.5" r="5.5" transform="translate(1608 3277)" fill="#fff"/><circle cx="5.5" cy="5.5" r="5.5" transform="translate(1608 3297)" fill="#fff"/><circle cx="5.5" cy="5.5" r="5.5" transform="translate(1628 3237)" fill="#fff"/></g></svg>