<svg xmlns="http://www.w3.org/2000/svg" xmlns:xlink="http://www.w3.org/1999/xlink" width="1939" height="847.589" viewBox="0 0 1939 847.589"><defs><linearGradient id="a" x1="0.94" y1="0.571" x2="0.074" y2="0.36" gradientUnits="objectBoundingBox"><stop offset="0" stop-color="#141414"/><stop offset="1" stop-color="#1b1b1b"/></linearGradient><filter id="b" x="0" y="0" width="1939" height="784.76" filterUnits="userSpaceOnUse"><feOffset dy="3" input="SourceAlpha"/><feGaussianBlur stdDeviation="3" result="c"/><feFlood flood-opacity="0.161"/><feComposite operator="in" in2="c"/><feComposite in="SourceGraphic"/></filter><linearGradient id="d" x1="0.085" y1="0.373" x2="0.869" y2="0.553" xlink:href="#a"/><filter id="e" x="0" y="219.224" width="1939" height="628.365" filterUnits="userSpaceOnUse"><feOffset dy="3" input="SourceAlpha"/><feGaussianBlur stdDeviation="3" result="f"/><feFlood flood-opacity="0.161"/><feComposite operator="in" in2="f"/><feComposite in="SourceGraphic"/></filter></defs><g transform="translate(9.499 -3868.329)"><g transform="matrix(1, 0, 0, 1, -9.5, 3868.33)" filter="url(#b)"><path d="M1921,953.089h0L0,790.9V186.329a1192.516,1192.516,0,0,0,184.217,58.608c18.079,4.15,36.371,7.874,54.368,11.07,19,3.375,38.222,6.259,57.124,8.569,19.874,2.429,39.925,4.291,59.6,5.533,20.615,1.3,41.4,1.963,61.781,1.963,19.8,0,39.729-.622,59.234-1.849,20.284-1.276,40.691-3.24,60.655-5.838,38.841-5.053,77.154-8.858,113.874-11.308,34.966-2.333,69.681-3.515,103.181-3.515,22.712,0,45.524.543,67.8,1.613,21.247,1.021,42.728,2.557,63.846,4.566,39,3.709,77.68,9.053,118.248,16.34,18.125,3.255,36.316,6.838,55.612,10.953,17.217,3.672,34.906,7.682,54.077,12.259,35.681,8.519,71.407,17.808,105.957,26.791l.012,0,.037.009.022.006c43.484,11.306,88.448,23,134.743,33.545,57.8,13.171,123.7,25.754,195.877,37.4,63.342,10.219,130.543,19.573,199.735,27.8,58.284,6.932,117.415,12.963,171,17.44v514.8Z" transform="translate(9 -180.33)" fill="url(#a)"/></g><g transform="matrix(1, 0, 0, 1, -9.5, 3868.33)" filter="url(#e)"><path d="M0,1015.917V427.572a1186.773,1186.773,0,0,0,133.488,27.433c25.084,3.647,50.392,6.457,75.223,8.352,26.684,2.036,53.519,3.069,79.76,3.069,16.579,0,33.291-.413,49.671-1.227,16.964-.842,34.063-2.142,50.822-3.862,17.327-1.78,34.754-4.06,51.8-6.776,17.607-2.806,35.3-6.159,52.6-9.966,31.741-6.987,63.259-13.1,93.679-18.169,29.249-4.875,58.414-8.939,86.686-12.08,27.035-3,54.145-5.264,80.578-6.717,25.08-1.378,50.434-2.077,75.357-2.077,31.076,0,61.638,1.034,93.431,3.161,28.374,1.9,57.121,4.63,87.884,8.354,25.653,3.105,53.264,6.983,84.411,11.854,27.709,4.334,55.694,9.054,82.757,13.618l.019,0,.235.04h.006c44.324,7.477,90.156,15.208,137.209,21.684,42.784,5.887,90.118,11.123,140.688,15.561,46.094,4.045,95.317,7.47,146.3,10.179,46.278,2.458,93.926,4.326,141.62,5.553,43.463,1.117,86.074,1.683,126.648,1.683,17.282,0,34.149-.106,50.132-.314v513.157Z" transform="translate(9 -180.33)" fill="url(#d)"/></g></g></svg>