<svg xmlns="http://www.w3.org/2000/svg" width="54.625" height="54.625" viewBox="0 0 54.625 54.625"><path d="M40.846,54.625H13.78A13.8,13.8,0,0,1,0,40.846V13.78A13.8,13.8,0,0,1,13.78,0H40.846a13.8,13.8,0,0,1,13.78,13.78V40.846A13.8,13.8,0,0,1,40.846,54.625ZM13.69,5.8A7.9,7.9,0,0,0,5.8,13.69V40.935a7.9,7.9,0,0,0,7.887,7.887H40.935a7.9,7.9,0,0,0,7.887-7.887V13.69A7.9,7.9,0,0,0,40.935,5.8ZM27.312,41.475A14.162,14.162,0,1,1,41.475,27.312,14.178,14.178,0,0,1,27.312,41.475Zm0-22.339a8.177,8.177,0,1,0,8.177,8.175A8.186,8.186,0,0,0,27.313,19.136ZM41.93,16.08a3.351,3.351,0,1,1,3.351-3.351A3.355,3.355,0,0,1,41.93,16.08Z" transform="translate(0 0)" fill="#fff"/></svg>