<?xml version="1.0" standalone="no"?>
<!DOCTYPE svg PUBLIC "-//W3C//DTD SVG 20010904//EN"
 "http://www.w3.org/TR/2001/REC-SVG-20010904/DTD/svg10.dtd">
<svg version="1.0" xmlns="http://www.w3.org/2000/svg"
 width="520.000000pt" height="422.000000pt" viewBox="0 0 520.000000 422.000000"
 preserveAspectRatio="xMidYMid meet">

<g transform="translate(0.000000,422.000000) scale(0.100000,-0.100000)"
fill="#000000" stroke="none">
<path d="M97 4213 c-4 -3 -7 -39 -7 -78 0 -60 -4 -76 -23 -98 -27 -32 -35 -33
-53 -9 -12 14 -14 -6 -12 -142 1 -91 5 -150 9 -137 5 11 6 27 3 35 -3 8 -1 17
4 20 5 3 8 17 7 31 -2 16 2 25 11 25 8 0 14 9 14 20 0 24 22 26 40 5 9 -11 11
-40 7 -105 -4 -71 -10 -94 -26 -112 -18 -18 -21 -19 -21 -5 0 9 -5 17 -11 17
-6 0 -9 6 -6 14 4 9 0 13 -11 12 -15 -3 -17 -21 -19 -162 -1 -117 1 -150 8
-124 9 33 50 80 68 80 21 0 34 -63 27 -137 -9 -98 -28 -133 -73 -133 l-33 0 0
-380 c0 -220 4 -380 9 -380 5 0 7 18 4 40 -4 26 -2 40 6 40 6 0 11 11 11 25 0
23 41 75 60 75 26 0 25 -197 -2 -258 -14 -31 -15 -32 -34 -15 -11 10 -20 31
-21 46 -1 33 -7 42 -22 32 -8 -4 -10 -130 -9 -398 1 -216 3 -375 5 -354 2 20
8 37 14 37 5 0 9 6 9 14 0 25 41 67 64 64 18 -3 22 -12 28 -68 4 -36 5 -92 2
-126 l-6 -61 54 -23 c88 -38 247 -90 274 -90 14 0 38 7 53 15 26 13 31 13 52
-4 13 -10 47 -22 75 -26 33 -4 71 -19 104 -41 28 -19 56 -34 60 -34 5 0 17
-13 26 -29 9 -16 33 -38 53 -49 45 -25 188 -82 205 -82 11 0 13 164 10 873 -2
479 -4 933 -5 1007 -2 74 -1 200 1 280 1 80 2 276 1 437 -1 161 1 303 5 318 4
14 1 31 -6 40 -7 8 -10 26 -6 40 l6 25 -488 0 c-269 0 -492 -3 -495 -7z m12
-1233 c0 -75 -12 -147 -27 -162 -5 -5 -19 -7 -29 -4 -17 5 -19 15 -19 74 1 37
-2 72 -7 78 -4 7 -1 19 8 28 9 9 14 20 11 25 -4 5 6 19 21 30 35 28 43 15 42
-69z m-4 -739 c3 -5 7 -58 9 -116 5 -130 -10 -184 -50 -185 -13 0 -34 43 -34
70 0 11 -4 20 -10 20 -5 0 -10 14 -10 31 0 16 3 28 7 26 5 -3 8 11 7 31 -1 47
12 81 39 109 25 24 33 27 42 14z"/>
<path d="M1260 4195 c-12 -22 -12 -30 2 -53 13 -22 17 -76 22 -297 7 -265 13
-490 21 -770 2 -77 7 -298 11 -491 l6 -352 -42 -83 c-23 -46 -57 -109 -75
-139 -37 -61 -66 -139 -64 -173 1 -21 1 -21 9 3 4 14 8 18 9 10 1 -20 -27
-177 -39 -213 -13 -40 23 -123 59 -135 26 -9 110 -2 144 13 16 7 17 -3 19
-111 2 -66 3 -164 3 -219 l0 -99 187 -74 c103 -41 193 -72 201 -69 9 3 12 17
9 41 -4 32 -8 37 -42 46 -35 10 -38 13 -46 63 -11 66 -7 211 6 251 11 35 19
455 9 462 -4 2 -23 -15 -43 -38 l-35 -43 11 36 c19 65 4 106 -69 177 l-64 63
21 107 c51 254 51 255 89 295 19 20 43 37 53 37 21 0 38 37 38 81 0 16 5 29
11 29 6 0 9 -6 7 -12 -3 -7 6 -21 18 -31 13 -10 21 -24 17 -32 -3 -10 1 -15
15 -15 28 0 103 28 123 46 9 8 46 26 83 39 52 19 77 35 115 77 l48 52 5 -37
c3 -28 1 -36 -9 -33 -19 8 -27 -39 -13 -74 7 -17 41 -59 76 -95 44 -45 64 -73
64 -90 0 -14 -6 -25 -13 -25 -19 0 -53 -66 -66 -130 -7 -30 -21 -80 -32 -110
-13 -37 -19 -74 -17 -110 l3 -55 35 1 c54 1 117 46 131 92 9 31 8 45 -5 76
-17 41 -17 40 31 96 7 8 29 39 48 68 36 56 38 80 5 62 -19 -10 -77 -3 -85 11
-9 14 68 76 178 143 39 24 96 106 97 139 0 34 -6 34 -37 1 -20 -22 -26 -24
-39 -13 -12 9 -15 28 -12 70 3 52 1 56 -13 43 -21 -19 -29 -18 -29 7 0 31 20
65 30 49 6 -9 12 -6 24 12 33 51 35 79 9 153 -13 40 -21 82 -19 98 3 15 2 27
-3 27 -5 0 -6 20 -3 45 5 47 7 45 -48 49 -11 1 -15 14 -15 51 0 37 -6 58 -22
79 -24 30 -30 61 -13 71 6 3 10 15 10 26 0 17 5 19 34 13 30 -5 34 -3 31 13
-1 10 -8 17 -15 15 -7 -2 -21 5 -32 15 -16 14 -21 15 -27 4 -11 -17 -32 -5
-24 14 9 26 57 17 96 -17 33 -30 63 -90 71 -143 2 -11 4 -22 6 -25 1 -3 1 -25
1 -50 -2 -60 14 -85 24 -39 10 47 17 56 26 33 12 -31 10 -71 -5 -83 -10 -9
-14 -40 -15 -116 -1 -115 -6 -107 64 -117 11 -2 20 -10 21 -18 0 -8 4 -22 7
-30 19 -50 14 -91 -19 -139 -2 -2 -11 4 -20 13 -9 9 -21 15 -27 13 -6 -2 -21
7 -33 20 -25 27 -34 21 -34 -24 0 -30 3 -33 31 -33 23 0 40 -9 63 -34 17 -19
45 -37 61 -41 17 -4 46 -13 65 -20 19 -8 73 -19 120 -25 134 -16 159 -26 222
-89 32 -31 58 -61 58 -66 0 -6 16 -17 35 -24 51 -18 59 -40 52 -146 -3 -59 0
-113 8 -151 7 -32 20 -93 29 -134 9 -41 21 -122 25 -180 7 -86 6 -110 -6 -131
-14 -23 -13 -29 5 -70 34 -74 75 -229 99 -379 3 -22 4 -136 1 -270 -2 -94 2
-119 20 -129 15 -8 17 -2 20 61 5 104 21 121 91 97 41 -14 57 -47 65 -135 6
-63 5 -72 -14 -89 -22 -20 -77 -23 -110 -5 -16 9 -21 8 -25 -5 -3 -8 -7 -22
-10 -31 -8 -24 -29 -11 -39 24 -6 21 -17 34 -32 38 -13 4 -24 10 -24 14 0 4
-11 10 -26 13 l-25 4 22 -23 c18 -19 20 -26 9 -39 -7 -8 -20 -15 -30 -15 -17
0 -80 28 -80 35 0 3 14 12 30 20 17 9 28 20 26 24 -6 9 -40 7 -66 -3 -10 -4
-19 3 -27 21 -14 30 -18 129 -5 137 4 2 16 -22 26 -55 17 -60 18 -60 49 -53
18 3 34 8 36 10 6 5 1 125 -8 209 -6 53 -5 72 5 80 11 8 10 18 -4 50 -17 38
-19 75 -3 75 11 0 5 101 -8 134 -7 16 -11 52 -10 80 1 29 -6 74 -17 104 -18
52 -18 54 -1 67 25 18 18 49 -12 53 -30 5 -155 -25 -196 -46 -39 -19 -46 -31
-33 -55 5 -10 12 -101 15 -202 l5 -183 -48 -49 c-45 -44 -49 -52 -48 -93 1
-45 33 -163 78 -295 18 -51 27 -110 35 -215 10 -127 14 -147 32 -162 12 -10
27 -18 34 -18 7 0 18 -7 25 -15 7 -8 10 -15 7 -15 -17 0 -127 47 -152 66 -36
26 -147 74 -172 74 -10 0 -68 20 -128 45 -934 387 -1823 731 -1864 723 -15 -4
95 -49 544 -225 287 -112 665 -266 661 -270 -1 -2 -50 15 -107 36 -144 55
-152 56 -89 22 42 -24 48 -29 25 -25 -33 7 -203 72 -335 129 -47 20 -125 52
-175 72 -49 19 -98 39 -107 44 -10 5 -24 9 -31 9 -7 0 -32 9 -55 20 -23 11
-57 23 -75 26 -17 4 -41 12 -52 19 -11 6 -87 35 -170 64 -82 29 -222 79 -310
111 -88 33 -176 64 -195 71 -19 6 -43 16 -53 20 -25 13 -149 60 -169 64 -9 2
-30 11 -47 19 l-31 17 0 -30 c0 -32 -23 -21 244 -120 112 -42 123 -47 114 -56
-3 -3 -49 11 -102 30 -53 19 -103 35 -110 35 -9 0 -15 -36 -22 -126 -8 -99
-14 -129 -27 -139 -9 -7 -17 -17 -17 -24 0 -6 -11 -11 -24 -11 -50 0 -56 -8
-56 -79 l0 -66 23 26 c29 35 73 63 90 56 17 -6 38 -136 35 -212 l-3 -60 75
-27 c100 -36 119 -35 152 4 l27 33 1 -32 c0 -38 18 -57 67 -74 21 -6 63 -24
93 -39 54 -27 440 -172 493 -185 l27 -7 -4 98 c-2 55 -6 108 -9 118 -2 11 2
43 9 72 7 32 11 106 9 188 -2 75 0 136 5 136 9 0 122 -42 163 -61 24 -11 27
-17 27 -64 0 -38 6 -59 24 -84 15 -20 29 -59 36 -102 12 -71 31 -96 64 -83 13
5 16 26 16 129 0 67 3 136 6 152 5 26 9 29 36 25 16 -3 26 -7 20 -11 -6 -4 0
-111 15 -291 31 -365 34 -392 38 -388 2 2 -3 91 -10 198 -26 347 -26 353 -6
210 10 -74 21 -146 24 -160 l4 -25 2 25 c3 64 97 330 116 330 3 0 33 -14 66
-30 33 -17 117 -53 187 -81 70 -27 156 -63 192 -79 118 -53 213 -90 218 -85 3
3 1 5 -4 5 -5 0 -20 10 -34 21 -23 19 -21 19 15 -2 22 -12 54 -33 71 -45 18
-13 66 -37 109 -54 42 -17 95 -40 118 -52 l41 -21 -28 -22 c-21 -17 -26 -28
-21 -44 3 -11 12 -21 20 -21 7 0 15 -10 17 -21 2 -12 10 -25 18 -29 8 -4 24
-11 35 -17 14 -7 25 -7 37 0 12 8 24 8 42 -1 30 -13 32 -24 10 -46 -14 -15
-13 -16 10 -16 14 0 27 -4 31 -9 9 -16 -46 -51 -82 -51 -42 0 -153 -55 -153
-75 0 -13 19 -15 121 -13 110 2 123 4 142 24 12 12 27 20 34 17 8 -3 13 3 13
16 0 12 5 21 10 21 6 0 10 -18 10 -40 l0 -40 114 0 113 0 7 70 c8 82 12 84
102 41 53 -25 61 -33 72 -70 12 -40 14 -41 57 -41 39 0 45 3 57 30 13 30 13
30 20 8 6 -22 6 -22 7 3 1 15 8 30 17 33 8 3 12 2 9 -3 -3 -5 -1 -12 5 -16 5
-3 10 -2 10 4 0 6 34 -5 76 -24 42 -19 91 -35 108 -34 26 1 16 8 -64 46 -52
25 -149 69 -215 98 -150 66 -357 166 -352 171 5 5 246 -97 509 -215 180 -81
234 -102 264 -99 36 3 36 3 -37 35 -41 18 -155 68 -254 113 -99 45 -234 104
-299 132 -66 29 -114 54 -107 56 14 5 100 -32 381 -158 107 -49 224 -96 260
-105 43 -11 75 -27 95 -46 60 -57 175 -31 222 51 14 25 46 75 70 112 49 75 94
178 117 269 19 74 20 89 3 89 -8 0 -23 10 -35 23 -19 20 -22 35 -22 104 0 61
4 86 16 97 27 28 82 15 115 -26 15 -20 17 -18 54 48 21 38 57 98 80 134 58 89
95 164 116 234 l18 60 -37 44 c-74 88 -73 86 -17 77 89 -14 85 -16 114 60 15
39 40 94 55 123 15 30 25 56 22 59 -19 20 -436 113 -504 113 -40 0 -41 -1 -78
-69 -21 -39 -41 -68 -45 -65 -13 7 -23 174 -11 186 8 8 23 6 54 -6 50 -21 47
-23 123 99 41 65 46 80 50 146 3 40 9 77 13 81 4 4 22 3 39 -4 l31 -12 -14
-39 c-19 -55 -19 -56 24 -50 35 5 194 -29 372 -78 110 -31 113 -31 127 16 6
22 24 82 39 133 16 55 24 96 18 101 -5 4 -88 27 -184 50 -127 31 -185 41 -214
37 -37 -6 -38 -6 -31 16 6 19 10 62 15 152 0 4 15 5 34 2 32 -6 35 -4 70 48
25 38 44 55 63 59 35 7 114 -6 271 -44 68 -17 130 -28 138 -25 32 12 45 64 42
173 l-3 107 -95 24 c-62 15 -116 22 -156 20 l-61 -4 21 36 c11 19 44 70 73
113 29 43 53 81 53 86 0 18 80 51 124 51 l46 0 0 72 0 72 -44 -43 -44 -43 -5
28 c-3 16 -9 55 -12 86 -6 54 -34 106 -49 91 -4 -4 -4 0 -1 9 4 9 12 19 20 21
22 9 26 88 10 188 -8 52 -15 138 -15 191 0 54 -7 148 -16 210 -9 64 -13 134
-9 161 3 27 3 69 -1 93 l-6 44 -389 0 -389 0 0 -21 c0 -18 -2 -19 -15 -9 -8 7
-12 16 -10 21 3 4 -258 9 -580 9 -408 0 -585 -3 -585 -10 0 -6 4 -9 9 -6 10 7
21 -16 21 -43 0 -13 -14 -20 -62 -28 -58 -10 -65 -9 -85 10 -14 12 -23 32 -23
49 0 26 -3 28 -38 28 -31 0 -41 -5 -52 -25 -9 -18 -19 -24 -29 -19 -9 4 -40
10 -70 14 -30 3 -57 12 -59 18 -3 9 -175 12 -701 12 l-698 0 -13 -25z m3240 6
c0 -5 17 -12 37 -16 21 -4 41 -12 45 -18 13 -20 9 -47 -7 -47 -8 0 -15 7 -15
15 0 21 -9 19 -31 -6 -18 -20 -18 -20 -38 -2 -23 21 -25 83 -3 83 6 0 12 -4
12 -9z m-1244 -20 c5 -6 26 -12 46 -14 48 -5 65 -20 79 -67 10 -31 9 -41 -6
-64 -21 -32 -30 -32 -95 -2 -57 26 -90 66 -90 107 0 41 40 65 66 40z m1529
-34 l50 -13 3 -62 3 -62 -26 12 c-14 6 -25 19 -25 30 0 10 -5 18 -11 18 -6 0
-9 -7 -5 -15 8 -22 -31 -19 -42 3 -14 25 -23 87 -15 95 8 9 9 9 68 -6z m-1165
-79 c25 -27 26 -75 1 -107 -17 -22 -19 -22 -48 -8 -38 20 -49 34 -56 74 -5 26
-2 35 16 48 30 21 63 19 87 -7z m1365 9 c13 -10 16 -21 11 -40 -12 -50 -45
-24 -46 36 0 20 10 22 35 4z m-2689 -37 c17 -53 5 -74 -46 -78 -60 -5 -107 41
-94 91 5 23 10 24 67 23 62 -1 62 -1 73 -36z m204 1 c44 3 55 0 69 -20 20 -26
26 -83 11 -110 -9 -17 -20 -19 -81 -18 -77 3 -99 17 -99 64 0 31 33 105 41 92
3 -6 30 -9 59 -8z m1319 -31 c25 -12 43 -30 49 -49 12 -35 14 -33 -56 -56 -48
-15 -55 -15 -76 -2 -27 18 -39 63 -24 92 22 41 50 45 107 15z m-1009 -44 c15
-1 29 -10 37 -26 29 -58 3 -151 -37 -130 -12 6 -28 6 -49 -1 -64 -22 -103 36
-80 117 14 46 27 54 74 46 17 -2 41 -5 55 -6z m1304 -37 c12 -60 9 -68 -31
-74 -21 -3 -45 -10 -54 -15 -22 -12 -47 8 -49 40 -5 59 -2 63 34 56 25 -5 38
-2 48 8 22 26 45 19 52 -15z m-1036 -128 c31 -16 27 -33 -13 -52 -50 -23 -90
-14 -109 26 -21 43 -20 50 6 74 l21 20 36 -28 c20 -15 46 -33 59 -40z m198 44
c12 -8 27 -27 33 -44 8 -19 22 -31 39 -34 16 -3 34 -18 45 -36 16 -27 16 -34
3 -64 -8 -19 -18 -37 -22 -40 -5 -3 -36 6 -70 20 -50 21 -64 32 -82 66 -25 47
-28 78 -11 110 21 39 35 44 65 22z m1096 -2 c32 -29 16 -93 -23 -93 -34 0 -79
38 -79 66 0 40 68 58 102 27z m150 -38 c-2 -25 -8 -45 -13 -45 -10 0 -12 73
-2 83 14 15 18 5 15 -38z m-888 -118 c14 -17 17 -32 13 -65 -2 -24 -7 -45 -10
-48 -13 -13 -119 9 -138 29 -21 23 -26 81 -7 101 20 21 119 9 142 -17z m181
18 c17 -3 36 -7 44 -9 23 -4 33 -35 34 -111 2 -78 -4 -95 -27 -76 -8 7 -33 11
-56 9 -54 -3 -85 29 -76 77 3 16 8 46 11 65 10 53 13 60 27 55 7 -2 27 -7 43
-10z m-1225 -157 c0 -35 -17 -36 -59 -1 l-32 27 33 17 c30 16 33 16 45 0 7 -9
13 -28 13 -43z m1460 43 c0 -10 7 -24 15 -31 13 -10 19 -10 35 5 19 17 20 17
33 -14 15 -35 11 -96 -4 -69 -5 8 -29 23 -54 32 -43 17 -45 20 -45 57 0 21 5
39 10 39 6 0 10 -8 10 -19z m-1247 -55 c51 -3 70 -27 64 -80 -7 -51 -18 -61
-45 -36 -16 15 -33 20 -60 19 -48 -3 -58 3 -66 42 -8 40 17 73 47 63 11 -3 38
-7 60 -8z m1782 -45 c50 -18 50 -18 53 -66 2 -26 -2 -53 -7 -58 -8 -8 -11 -6
-11 6 0 17 -11 22 -23 11 -4 -4 -22 -8 -41 -10 -31 -3 -34 0 -40 28 -10 53 -7
108 7 107 6 0 35 -8 62 -18z m-1558 -37 c5 -13 15 -15 50 -10 28 4 42 2 38 -4
-3 -6 -1 -10 5 -10 6 0 10 -15 8 -35 -1 -21 -7 -35 -15 -35 -7 0 -13 5 -13 12
0 9 -3 9 -12 0 -13 -13 -51 -16 -62 -4 -4 4 -13 7 -19 7 -7 0 -12 10 -13 21
-1 12 -4 27 -8 33 -8 12 10 41 26 41 5 0 11 -7 15 -16z m259 -4 c8 0 14 -4 14
-10 0 -5 14 -10 30 -10 17 0 30 5 30 13 0 20 19 -14 31 -57 15 -54 -4 -100
-38 -93 -13 2 -26 0 -29 -4 -3 -5 -18 -9 -34 -9 -25 0 -32 6 -45 36 -8 20 -15
47 -15 60 0 27 33 101 38 85 2 -6 10 -11 18 -11z m1586 -36 c21 -6 33 -60 25
-111 -8 -49 -13 -51 -45 -20 -16 15 -34 27 -41 27 -22 0 -41 27 -47 67 -3 21
-8 42 -11 47 -5 8 81 1 119 -10z m-1307 -24 c64 -32 75 -43 75 -72 0 -15 5
-30 10 -33 15 -9 12 -51 -5 -65 -13 -11 -18 -10 -29 5 -12 17 -16 18 -37 4
-13 -8 -32 -13 -42 -11 -40 8 -61 110 -35 167 14 30 14 30 63 5z m253 -72 c9
-9 18 -9 38 1 36 16 54 -1 54 -51 0 -22 4 -47 10 -57 10 -19 -7 -71 -23 -71
-5 0 -6 4 -3 9 3 5 -3 11 -15 14 -12 3 -22 0 -26 -9 -9 -24 -70 -18 -87 9 -26
42 -27 64 -4 116 22 52 35 60 56 39z m267 -69 c4 -5 15 -9 26 -9 11 0 19 -7
19 -17 0 -15 2 -16 9 -4 12 18 21 -12 24 -79 2 -35 -2 -45 -15 -48 -12 -2 -19
5 -24 22 -8 33 -54 38 -54 6 0 -27 -16 -25 -25 3 -9 25 -16 107 -11 122 5 14
44 17 51 4z m-1214 -76 c6 -6 15 -30 20 -53 8 -34 6 -50 -6 -77 -18 -38 -22
-39 -55 -13 -27 21 -50 26 -50 10 0 -5 -10 -10 -23 -10 -28 0 -71 67 -61 96
20 63 23 65 96 62 37 -2 73 -9 79 -15z m193 -28 c16 -9 37 -13 46 -10 33 11
58 -96 36 -158 -9 -28 -15 -33 -31 -26 -11 4 -36 10 -56 14 -28 4 -43 15 -62
43 -38 55 -40 100 -5 132 26 24 34 25 72 5z m1355 -22 c18 -49 16 -97 -3 -125
-9 -12 -16 -17 -16 -11 0 6 -9 13 -21 15 -11 2 -28 16 -37 33 -9 16 -23 35
-31 41 -11 8 -11 15 -3 30 6 10 12 16 12 12 0 -14 60 14 60 28 0 28 26 13 39
-23z m-2209 23 c0 -2 -7 -7 -16 -10 -8 -3 -12 -2 -9 4 6 10 25 14 25 6z m2418
-49 c6 -5 12 -6 12 -1 0 5 5 2 10 -6 5 -8 10 -36 10 -62 0 -52 7 -48 -77 -51
-40 -1 -58 35 -49 96 l7 48 37 -7 c20 -4 43 -11 50 -17z m-1277 -11 c40 -6 48
-11 64 -44 34 -72 36 -92 13 -134 -21 -37 -37 -46 -52 -30 -9 8 -14 9 -61 11
-31 1 -36 6 -55 47 -11 26 -20 62 -20 80 0 52 33 102 55 85 5 -5 31 -11 56
-15z m-1310 5 c-11 -7 -9 -11 9 -21 15 -8 19 -15 12 -22 -18 -18 8 -60 33 -56
12 3 27 -2 34 -9 9 -10 27 -13 58 -9 l45 4 -23 -24 c-13 -14 -32 -24 -44 -23
-33 4 -63 -10 -68 -34 -3 -12 -4 -65 -2 -117 l4 -95 -25 65 c-41 108 -56 140
-65 134 -5 -3 -9 3 -9 12 0 10 -5 32 -11 49 -10 28 -9 35 8 52 14 14 19 29 16
47 -5 27 11 56 31 56 6 0 5 -4 -3 -9z m2827 -48 c17 -10 22 -21 19 -35 -3 -11
1 -27 9 -35 8 -8 14 -26 14 -39 0 -20 -4 -24 -18 -20 -11 4 -27 -2 -40 -14
-29 -27 -46 -25 -72 8 -18 22 -21 36 -17 74 10 86 39 102 105 61z m-3052 -3
c27 -23 52 -212 35 -265 -8 -26 -9 -27 -10 -7 -2 60 -47 107 -113 116 -49 7
-105 -9 -140 -41 -26 -23 -34 -79 -15 -98 14 -14 17 -14 25 0 7 13 14 14 35 6
15 -6 27 -15 27 -21 0 -12 -45 -24 -59 -16 -11 7 -121 -26 -121 -36 0 -5 10
-8 23 -9 12 -1 29 -2 37 -3 8 -2 30 -3 48 -4 17 -1 32 -6 32 -11 0 -11 -82
-24 -89 -14 -3 4 -20 16 -38 25 -30 15 -32 15 -36 0 -4 -13 -5 -12 -6 4 -1 13
14 31 44 52 42 29 45 35 40 65 -3 19 4 72 19 132 34 137 48 150 165 141 46 -3
90 -11 97 -16z m484 -7 c0 -20 -3 -24 -11 -16 -7 7 -9 19 -6 27 10 24 17 19
17 -11z m1276 -2 c5 -5 25 -11 44 -13 64 -6 103 -108 68 -182 -10 -23 -15 -25
-52 -20 -103 13 -107 14 -117 42 -10 25 -6 102 8 160 5 22 31 29 49 13z
m-1212 -56 c15 -23 15 -25 -3 -35 -16 -8 -21 -5 -29 19 -16 46 5 57 32 16z
m-59 -14 c-4 -13 -15 -21 -28 -21 -20 0 -20 0 -1 15 10 8 15 15 9 15 -5 0 -3
4 5 10 19 12 23 6 15 -19z m1543 -22 c2 -4 18 -5 36 -2 19 3 36 1 40 -5 8 -13
12 -179 4 -187 -9 -9 -38 6 -38 20 0 7 6 16 13 18 7 3 5 6 -5 6 -10 1 -18 -5
-18 -11 0 -12 -30 -15 -78 -10 -7 1 -20 19 -28 39 -13 30 -14 44 -4 80 7 24
16 43 21 43 5 0 6 7 2 16 -4 12 0 14 23 8 16 -4 30 -11 32 -15z m-1868 -32 c0
-25 -25 -16 -26 9 0 10 2 23 4 28 6 11 22 -15 22 -37z m2146 -33 c7 -8 16 -14
20 -13 24 4 32 -4 37 -33 3 -18 8 -51 12 -73 3 -23 1 -46 -5 -55 -9 -13 -13
-11 -31 10 -21 25 -51 28 -76 8 -16 -13 -33 50 -33 126 l0 59 33 -7 c17 -3 37
-13 43 -22z m-1366 -22 c0 -10 60 -32 87 -32 25 0 36 -23 34 -71 -1 -21 3 -40
8 -44 8 -4 5 -15 -9 -32 -11 -14 -18 -29 -15 -33 3 -5 -3 -7 -12 -5 -10 2 -26
4 -36 4 -9 1 -22 11 -28 24 -6 13 -20 27 -32 32 -18 8 -23 20 -25 64 -4 62 4
101 18 101 6 0 10 -4 10 -8z m1600 -43 c0 -6 9 -8 20 -4 26 8 60 -3 60 -20 0
-7 7 -26 15 -41 19 -38 19 -56 -2 -93 -16 -28 -21 -30 -52 -24 -35 6 -65 31
-88 71 -19 33 2 122 28 122 10 0 19 -5 19 -11z m-1285 -36 c11 -7 32 -13 47
-13 23 0 29 -6 37 -37 17 -71 21 -103 11 -103 -6 0 -10 -9 -10 -20 0 -32 -74
-23 -83 11 -3 10 -12 19 -21 19 -8 0 -26 11 -40 24 -30 27 -34 67 -11 114 17
32 28 33 70 5z m1541 -18 c10 -8 29 -15 40 -15 27 0 34 -18 34 -78 0 -56 -12
-81 -32 -65 -15 12 -58 0 -58 -17 0 -23 -16 -7 -32 33 -18 41 -25 137 -11 150
11 12 38 8 59 -8z m-2871 -35 c8 -13 -5 -13 -25 0 -13 8 -13 10 2 10 9 0 20
-4 23 -10z m1590 -21 c24 -14 43 -19 61 -15 24 6 26 5 21 -14 -3 -12 -3 -19 0
-16 8 8 52 -64 53 -85 0 -9 -9 -28 -20 -42 -19 -24 -28 -26 -85 -26 -36 1 -68
6 -73 12 -24 31 -28 73 -14 140 8 37 16 67 18 67 1 0 19 -9 39 -21z m1495 -3
c0 -15 -14 -35 -21 -30 -15 9 -10 34 6 34 8 0 15 -2 15 -4z m-3027 -50 c9 -7
17 -20 17 -29 0 -14 -3 -14 -29 -1 -16 8 -34 21 -41 29 -10 13 -9 15 11 15 13
0 32 -7 42 -14z m1787 -6 c10 -6 32 -11 47 -13 41 -5 53 -15 53 -43 0 -14 5
-35 11 -46 15 -27 -9 -139 -23 -113 -7 12 -19 14 -57 9 -42 -5 -51 -3 -69 17
-29 30 -37 82 -22 132 11 39 27 67 37 67 2 0 13 -5 23 -10z m-1972 -43 c6 -20
-1 -27 -29 -27 -37 0 -69 26 -41 33 24 7 67 3 70 -6z m2291 -20 c41 -20 47
-27 58 -72 16 -64 16 -97 0 -128 -13 -24 -14 -25 -52 -10 -22 9 -50 15 -63 15
-40 0 -63 51 -60 133 1 39 6 76 12 83 11 16 41 10 105 -21z m-2122 -22 c8 -22
-6 -33 -17 -15 -13 20 -12 30 0 30 6 0 13 -7 17 -15z m630 -42 c-9 -9 -20 -13
-24 -9 -4 4 1 14 11 22 25 18 35 8 13 -13z m1745 -11 c38 -7 41 -10 65 -70 24
-58 25 -67 12 -104 -12 -39 -14 -40 -48 -34 -20 3 -37 10 -39 16 -2 5 -16 10
-32 10 -15 0 -33 7 -40 15 -16 19 -23 135 -10 169 8 23 13 25 30 16 12 -6 39
-14 62 -18z m-2712 -12 c0 -5 -4 -10 -10 -10 -5 0 -10 5 -10 10 0 6 5 10 10
10 6 0 10 -4 10 -10z m2985 -56 c25 -8 33 -19 48 -63 19 -57 16 -93 -10 -126
-10 -14 -17 -16 -20 -7 -3 7 -24 12 -54 12 -45 0 -51 3 -60 28 -6 15 -14 62
-18 104 -7 87 -2 94 54 72 17 -6 44 -16 60 -20z m-1049 -128 c54 -15 68 -28
88 -80 16 -43 16 -46 -2 -83 l-20 -38 -73 5 -72 5 -18 50 c-22 63 -23 87 -4
131 13 31 18 35 37 29 13 -4 41 -12 64 -19z m320 -67 c15 -12 26 -136 16 -174
-6 -21 -14 -29 -28 -27 -10 1 -39 4 -62 6 -49 4 -65 16 -80 62 -7 23 -6 39 4
63 8 18 14 47 14 63 l0 29 63 -7 c34 -4 67 -11 73 -15z m178 -44 c11 -8 32
-15 47 -15 15 0 31 -6 36 -12 13 -21 31 -122 24 -133 -4 -5 -7 -25 -5 -42 2
-32 -12 -43 -30 -25 -8 7 -14 9 -47 11 -11 0 -17 6 -14 11 4 6 12 7 18 4 9 -5
9 -4 1 5 -9 10 -17 10 -35 1 -20 -11 -25 -10 -46 14 -33 38 -39 72 -19 112 9
19 16 43 16 53 0 34 22 40 54 16z m288 -73 c32 -10 60 -20 63 -23 2 -3 7 -49
10 -101 5 -105 -3 -120 -44 -92 -12 9 -36 14 -53 12 -29 -3 -34 1 -62 53 l-30
55 22 42 c12 24 22 49 22 57 0 19 3 19 72 -3z m-792 -187 c7 -8 24 -15 39 -15
14 0 31 -4 37 -8 16 -9 27 -129 16 -166 -9 -32 -32 -48 -32 -22 0 20 -34 21
-54 1 -15 -16 -45 -20 -47 -7 -3 26 -8 53 -18 92 -12 50 -14 123 -4 133 12 12
50 7 63 -8z m278 -61 c55 -15 97 -47 87 -65 -3 -4 0 -28 6 -53 9 -38 8 -49 -7
-75 -18 -30 -44 -42 -44 -20 0 13 -65 40 -82 34 -24 -9 -53 152 -34 183 9 15
7 15 74 -4z m237 -70 c14 -9 34 -14 45 -11 38 10 62 -22 61 -83 0 -99 -3 -140
-12 -140 -5 0 -9 4 -9 9 0 35 -71 55 -88 25 -7 -12 -14 -4 -31 38 -16 41 -20
65 -15 103 10 83 10 84 49 59z m-879 -442 c9 -43 18 -90 20 -107 l4 -30 -14
30 c-8 17 -21 71 -30 120 -9 50 -18 101 -21 115 -3 14 1 8 10 -13 8 -21 22
-73 31 -115z m-2771 -2 c13 -6 15 -9 5 -9 -8 0 -22 4 -30 9 -18 12 -2 12 25 0z
m3220 0 c8 0 23 -10 35 -22 16 -18 20 -35 20 -94 0 -88 -10 -100 -69 -84 -22
6 -45 18 -50 28 -8 16 -16 114 -13 154 2 17 27 28 50 22 8 -2 20 -4 27 -4z
m274 -56 c41 -9 57 -41 60 -125 3 -78 -9 -94 -63 -84 -52 10 -64 30 -72 119
-9 96 -1 105 75 90z m-3224 -39 c89 -32 139 -54 123 -55 -9 0 -211 71 -228 81
-32 19 13 8 105 -26z m135 -75 c52 -16 123 -51 117 -57 -9 -8 -377 130 -371
139 3 4 55 -11 117 -33 62 -23 123 -45 137 -49z m3392 28 c26 -24 28 -32 28
-96 0 -48 -4 -73 -14 -81 -21 -18 -84 -3 -102 24 -20 31 -31 150 -15 169 19
23 70 15 103 -16z m265 -80 c38 -47 45 -64 45 -102 1 -62 -15 -79 -70 -73 -68
8 -86 32 -92 127 -6 91 3 112 44 108 21 -2 40 -18 73 -60z m-3497 12 c8 -5 11
-10 5 -10 -5 0 -17 5 -25 10 -8 5 -10 10 -5 10 6 0 17 -5 25 -10z m50 -20 c8
-5 11 -10 5 -10 -5 0 -17 5 -25 10 -8 5 -10 10 -5 10 6 0 17 -5 25 -10z m84
-34 c29 -13 58 -30 62 -38 5 -8 42 -27 82 -43 39 -16 70 -30 68 -32 -4 -4
-327 116 -336 124 -5 6 58 -4 88 -13 9 -3 6 2 -8 10 -37 23 -18 19 44 -8z
m2846 -214 c16 -13 25 -35 31 -73 18 -129 6 -155 -70 -144 -74 11 -82 24 -75
119 4 45 11 89 16 99 12 23 69 22 98 -1z m272 -54 c19 -9 33 -53 43 -133 8
-65 -13 -89 -72 -83 -81 10 -114 55 -95 131 6 23 13 54 16 69 8 37 55 44 108
16z m-2565 -55 c-3 -10 -5 -2 -5 17 0 19 2 27 5 18 2 -10 2 -26 0 -35z m111
29 c2 -7 -2 -10 -12 -6 -9 3 -16 11 -16 16 0 13 23 5 28 -10z m452 -68 c23 -9
39 -18 37 -20 -2 -3 -24 4 -48 15 -54 24 -45 27 11 5z m-120 -20 c23 -9 39
-18 36 -21 -7 -8 -86 17 -86 27 0 13 3 13 50 -6z m220 -20 c23 -9 39 -18 37
-20 -2 -3 -24 4 -48 15 -54 24 -45 27 11 5z m273 -111 c31 -14 56 -28 54 -30
-4 -4 -148 54 -156 63 -9 10 40 -6 102 -33z m771 -25 c-9 -31 -26 -62 -41 -74
-18 -16 -22 -23 -12 -27 8 -3 10 -6 4 -6 -5 0 -16 3 -23 8 -18 11 16 119 41
127 9 3 17 10 17 15 0 5 7 9 14 9 13 0 13 -7 0 -52z m339 -37 c21 -20 36 -81
37 -148 0 -56 -30 -78 -94 -69 -65 10 -80 33 -78 114 4 93 6 103 28 119 24 18
81 10 107 -16z m-463 -16 c-7 -9 -15 -13 -17 -11 -7 7 7 26 19 26 6 0 6 -6 -2
-15z m225 -15 c3 -5 1 -10 -4 -10 -6 0 -11 5 -11 10 0 6 2 10 4 10 3 0 8 -4
11 -10z m504 -15 c35 -18 41 -32 48 -118 8 -87 -7 -107 -79 -107 -39 0 -54 5
-75 26 -24 25 -25 29 -19 102 4 41 12 84 17 94 12 22 68 24 108 3z m279 -60
c28 -23 31 -32 37 -110 9 -102 2 -115 -62 -115 -36 0 -50 6 -74 29 -28 29 -29
32 -23 103 3 40 10 83 16 96 16 31 67 30 106 -3z m-1243 -65 c174 -70 504
-214 543 -236 38 -23 55 -44 34 -44 -16 0 -307 131 -432 194 -69 35 -159 78
-200 96 -41 18 -79 37 -85 42 -5 5 8 2 30 -7 22 -9 72 -29 110 -45z m455 25
c0 -2 -10 -10 -22 -16 -21 -11 -22 -11 -9 4 13 16 31 23 31 12z m-555 -335
c-10 -11 -21 -18 -23 -15 -3 3 3 12 14 20 27 20 30 18 9 -5z"/>
<path d="M1645 3037 c-11 -7 -22 -13 -24 -15 -3 -1 -6 -20 -7 -41 -2 -34 2
-41 26 -51 15 -6 47 -10 71 -8 l44 3 -2 40 c-5 77 -10 85 -51 84 -20 0 -46 -6
-57 -12z"/>
<path d="M1620 2910 c0 -5 5 -10 10 -10 6 0 10 5 10 10 0 6 -4 10 -10 10 -5 0
-10 -4 -10 -10z"/>
<path d="M10 4090 c0 -5 5 -10 10 -10 6 0 10 5 10 10 0 6 -4 10 -10 10 -5 0
-10 -4 -10 -10z"/>
<path d="M1681 2484 c0 -11 3 -14 6 -6 3 7 2 16 -1 19 -3 4 -6 -2 -5 -13z"/>
<path d="M5171 2294 c-23 -33 -24 -38 -11 -67 7 -18 15 -70 16 -116 3 -96 7
-89 -109 -231 -68 -83 -217 -302 -252 -370 -12 -23 -14 -35 -6 -38 6 -2 11
-11 11 -21 0 -9 7 -26 15 -37 11 -17 12 -29 4 -59 -6 -21 -8 -47 -5 -58 7 -28
-15 -66 -85 -147 -77 -90 -150 -191 -223 -313 l-59 -97 16 -78 c26 -134 15
-168 -104 -303 -110 -124 -209 -288 -209 -346 0 -10 95 -13 441 -13 488 0 453
-5 388 59 -21 22 -27 38 -31 101 -4 41 -3 95 0 119 l7 44 72 -76 c40 -42 75
-89 79 -104 4 -16 11 -34 17 -40 7 -10 3 -12 -21 -7 -24 5 -32 2 -41 -14 -21
-39 -17 -43 72 -66 l47 -13 0 217 0 217 -92 134 c-50 74 -108 154 -128 179
-20 25 -63 85 -95 133 l-58 88 28 65 c15 35 33 64 41 64 8 0 14 9 14 20 0 10
6 25 13 32 8 7 12 20 9 30 -2 9 10 38 27 64 25 36 29 49 20 60 -6 8 -7 14 -2
14 5 0 10 6 10 14 0 8 26 72 58 143 32 70 69 153 83 183 13 30 36 78 49 107
14 29 23 57 21 64 -2 6 -44 -76 -93 -182 -49 -107 -113 -244 -142 -305 -29
-61 -53 -115 -53 -121 0 -6 -7 -16 -15 -23 -8 -7 -15 -20 -15 -28 0 -9 -16
-51 -37 -94 -29 -62 -39 -76 -50 -67 -20 17 -17 26 36 109 50 78 65 124 116
338 35 148 63 216 118 294 24 35 66 102 91 149 l46 87 -2 171 -3 170 -24 -35z
m-497 -1693 c-9 -17 -13 -39 -10 -48 5 -13 4 -14 -8 -4 -16 13 -12 31 12 69
21 32 25 21 6 -17z m163 -115 l35 -49 -42 6 c-62 8 -81 30 -78 88 l3 48 23
-22 c13 -12 40 -44 59 -71z m-197 -191 c7 -8 17 -53 22 -101 11 -102 5 -114
-59 -114 -80 0 -109 31 -97 106 6 39 13 50 58 84 58 45 59 45 76 25z m242 -37
c27 -13 38 -42 45 -112 7 -83 0 -112 -32 -120 -31 -8 -98 25 -120 58 -23 35
-10 161 18 181 20 14 53 12 89 -7z m-401 -64 c-9 -25 -17 -38 -19 -30 -3 13
24 76 32 76 2 0 -4 -21 -13 -46z m-266 -133 c-8 -17 -20 -31 -26 -31 -10 0 3
32 24 58 17 22 19 5 2 -27z"/>
<path d="M2588 2205 c-6 -28 8 -43 24 -27 11 11 2 52 -12 52 -4 0 -10 -11 -12
-25z"/>
<path d="M4995 1995 c-3 -8 -7 -22 -10 -31 -3 -8 -1 -13 4 -10 5 3 11 17 13
31 6 27 0 34 -7 10z"/>
<path d="M5158 1883 c-24 -45 -34 -73 -28 -82 10 -18 73 101 68 131 -2 14 -14
0 -40 -49z"/>
<path d="M1667 1917 c-11 -29 -9 -43 4 -30 6 6 9 19 7 29 -3 18 -4 18 -11 1z"/>
<path d="M2881 1886 c7 -15 15 -23 17 -16 3 7 -3 19 -13 28 -15 16 -16 15 -4
-12z"/>
<path d="M0 1555 c0 -17 8 -20 244 -110 98 -36 185 -65 194 -63 23 4 -46 36
-238 110 -85 33 -165 64 -177 69 -18 6 -23 5 -23 -6z"/>
<path d="M5069 1463 c-39 -92 -91 -254 -85 -268 3 -9 -1 -15 -9 -15 -8 0 -15
-5 -15 -11 0 -6 8 -8 18 -5 14 5 36 -20 100 -112 45 -64 91 -128 102 -142 l20
-25 0 234 0 233 -47 75 c-26 41 -51 77 -55 79 -5 3 -17 -16 -29 -43z"/>
<path d="M0 1349 l0 -42 23 34 c16 23 20 36 13 41 -25 17 -36 7 -36 -33z"/>
<path d="M2240 1208 c-161 -17 -168 -19 -173 -38 -7 -27 9 -91 25 -102 7 -5
64 -6 133 -1 66 4 137 6 158 5 l37 -2 0 63 c0 34 -4 67 -8 74 -8 12 -65 12
-172 1z"/>
<path d="M2473 1213 c-25 -5 -29 -31 -17 -104 l6 -36 42 10 c22 6 58 17 78 26
31 13 38 21 38 46 0 17 -4 36 -9 44 -9 15 -96 24 -138 14z"/>
<path d="M1985 1163 c-11 -2 -41 -11 -67 -19 -47 -15 -48 -16 -48 -59 0 -42 1
-43 37 -47 21 -3 64 2 96 10 52 13 58 17 53 36 -3 12 -6 36 -6 54 0 33 -10 37
-65 25z"/>
<path d="M15 1080 c3 -5 8 -10 11 -10 2 0 4 5 4 10 0 6 -5 10 -11 10 -5 0 -7
-4 -4 -10z"/>
<path d="M2422 860 c0 -19 2 -27 5 -17 2 9 2 25 0 35 -3 9 -5 1 -5 -18z"/>
<path d="M2412 765 c0 -16 2 -22 5 -12 2 9 2 23 0 30 -3 6 -5 -1 -5 -18z"/>
<path d="M2 624 l3 -37 315 -107 c436 -148 611 -209 1019 -354 343 -122 355
-126 435 -126 78 0 80 1 51 15 -27 13 -230 88 -515 191 -52 19 -129 48 -170
63 -77 29 -485 167 -710 239 -69 22 -164 59 -212 81 -48 23 -93 41 -101 41 -7
0 -17 3 -21 7 -3 4 -13 8 -20 9 -7 1 -28 5 -45 9 -32 7 -32 7 -29 -31z"/>
<path d="M1373 533 l-32 -28 6 -114 6 -113 34 -14 c19 -8 37 -13 42 -10 4 3 4
31 0 63 -4 32 -8 100 -8 151 -1 50 -5 92 -9 92 -4 0 -22 -12 -39 -27z"/>
<path d="M2387 383 c-9 -8 -9 -336 -1 -357 14 -36 19 -10 20 102 0 98 4 124
20 151 18 32 18 33 0 46 -10 8 -16 17 -13 22 7 11 -18 45 -26 36z"/>
<path d="M4301 374 c0 -11 3 -14 6 -6 3 7 2 16 -1 19 -3 4 -6 -2 -5 -13z"/>
<path d="M2119 233 c-2 -57 -2 -143 -1 -190 2 -42 3 -43 37 -43 19 0 35 4 35
9 0 21 -32 189 -41 218 -15 47 -29 50 -30 6z"/>
<path d="M4170 169 c-7 -11 -10 -23 -7 -25 2 -2 9 7 15 21 14 30 7 33 -8 4z"/>
<path d="M3505 10 c3 -5 16 -10 28 -10 18 0 19 2 7 10 -20 13 -43 13 -35 0z"/>
</g>
</svg>
