<svg xmlns="http://www.w3.org/2000/svg" width="33.079" height="29.167" viewBox="0 0 33.079 29.167"><g transform="translate(0 -7.328)"><path d="M13.289,13.12a1.591,1.591,0,0,0,.8-2.135L12.782,8.236A1.6,1.6,0,0,0,10.7,7.463,18.384,18.384,0,0,0,4.937,11.2a13.943,13.943,0,0,0-3.869,6.111A33.514,33.514,0,0,0,0,26.7v8.192a1.606,1.606,0,0,0,1.6,1.6H12.088a1.606,1.606,0,0,0,1.6-1.6V24.407a1.606,1.606,0,0,0-1.6-1.6H7.071a11.251,11.251,0,0,1,1.868-6.485A10.143,10.143,0,0,1,13.289,13.12Z" transform="translate(0 0)" fill="#fff"/><path d="M83.962,13.193a1.591,1.591,0,0,0,.8-2.135L83.455,8.337a1.6,1.6,0,0,0-2.081-.774,19.33,19.33,0,0,0-5.737,3.709,14.242,14.242,0,0,0-3.9,6.137,33.064,33.064,0,0,0-1.04,9.366v8.192a1.606,1.606,0,0,0,1.6,1.6H82.788a1.606,1.606,0,0,0,1.6-1.6V24.481a1.606,1.606,0,0,0-1.6-1.6H77.745A11.253,11.253,0,0,1,79.613,16.4,10.141,10.141,0,0,1,83.962,13.193Z" transform="translate(-51.834 -0.074)" fill="#fff"/></g></svg>