<?xml version="1.0" standalone="no"?>
<!DOCTYPE svg PUBLIC "-//W3C//DTD SVG 20010904//EN"
 "http://www.w3.org/TR/2001/REC-SVG-20010904/DTD/svg10.dtd">
<svg version="1.0" xmlns="http://www.w3.org/2000/svg"
 width="598.000000pt" height="602.000000pt" viewBox="0 0 598.000000 602.000000"
 preserveAspectRatio="xMidYMid meet">

<g transform="translate(0.000000,602.000000) scale(0.100000,-0.100000)"
fill="#000000" stroke="none">
<path d="M0 6010 c0 -7 188 -10 543 -10 l542 -1 47 -102 47 -102 3 -160 2
-160 -38 -55 c-134 -194 -186 -409 -186 -772 0 -324 34 -514 130 -727 29 -65
40 -102 40 -138 l0 -49 -37 4 c-55 5 -102 -30 -127 -93 -18 -44 -20 -76 -20
-276 l-1 -226 47 -94 c26 -52 74 -128 108 -169 70 -88 148 -204 210 -313 57
-101 104 -133 183 -124 l52 7 34 -93 c92 -253 264 -511 529 -796 l97 -105 7
-85 c3 -47 7 -124 7 -170 l1 -84 -47 -46 c-164 -159 -488 -397 -571 -418 -16
-4 -30 1 -47 17 -21 20 -30 21 -87 15 -35 -4 -81 -14 -103 -21 -22 -8 -125
-26 -230 -39 -539 -72 -698 -130 -926 -335 -80 -72 -209 -240 -209 -272 0 -17
44 -18 1266 -18 l1266 0 -108 56 c-117 60 -355 196 -351 200 5 5 151 -16 262
-36 146 -28 297 -69 422 -117 34 -12 67 -23 73 -23 7 0 -13 27 -44 60 -37 40
-59 75 -67 103 -12 45 -24 85 -93 307 -25 80 -49 160 -52 178 -4 18 -11 35
-15 38 -12 7 -12 6 5 -79 8 -40 24 -148 36 -241 11 -93 24 -174 27 -179 4 -6
-14 -8 -48 -4 -57 6 -258 22 -471 37 l-127 9 -93 70 c-105 78 -268 218 -267
229 0 4 27 20 60 35 76 36 245 158 406 293 69 57 129 104 133 104 4 0 16 21
27 46 17 39 22 43 34 32 25 -24 146 -122 191 -154 50 -36 179 -95 217 -99 14
-2 67 -8 116 -15 103 -14 386 -8 450 10 22 6 56 15 76 19 41 9 128 49 147 68
7 7 17 13 22 13 10 0 154 112 183 142 24 25 35 23 43 -7 5 -22 37 -52 209
-194 99 -82 175 -139 257 -194 l97 -64 -37 -36 c-20 -20 -104 -90 -186 -155
-159 -128 -167 -132 -280 -132 -89 0 -283 -20 -353 -36 -73 -16 -86 -17 -78
-5 6 10 56 334 54 354 0 7 -8 -13 -16 -43 -8 -30 -18 -59 -23 -65 -4 -5 -11
-26 -15 -45 -10 -48 -93 -249 -116 -282 -11 -14 -19 -31 -19 -37 0 -6 -4 -11
-9 -11 -5 0 -11 -6 -14 -14 -5 -12 0 -12 31 1 73 31 180 54 366 78 104 14 191
24 192 22 2 -1 -71 -54 -162 -117 -90 -63 -164 -116 -164 -117 0 -2 567 -3
1260 -3 842 0 1260 3 1260 10 0 6 -25 50 -55 99 -204 330 -501 467 -1140 526
-99 9 -191 22 -205 29 -14 8 -67 22 -118 31 -89 17 -93 17 -112 0 -19 -17 -23
-17 -53 -3 -81 39 -358 252 -484 374 l-53 50 1 85 c0 46 4 123 7 170 l7 85 87
90 c117 120 289 337 372 468 54 85 118 216 161 331 l38 100 61 0 c73 0 114 25
154 95 91 160 138 233 183 285 66 79 133 179 166 251 35 77 47 213 34 396 -14
188 -43 252 -123 264 -21 4 -38 8 -38 9 0 1 7 21 15 45 46 129 60 383 29 495
-22 78 -22 81 14 213 82 301 66 540 -52 787 -67 138 -153 259 -279 392 -115
119 -204 183 -306 216 l-73 23 36 32 c44 38 80 49 118 34 25 -9 28 -9 18 4
-11 12 92 14 789 14 527 0 801 3 801 10 0 7 -1003 10 -2990 10 -1987 0 -2990
-3 -2990 -10z m1395 -20 c8 -13 -5 -13 -25 0 -13 8 -13 10 2 10 9 0 20 -4 23
-10z m115 -10 c9 -17 8 -20 -8 -20 -10 0 -27 9 -37 20 -18 20 -17 20 8 20 16
0 30 -8 37 -20z m2541 -917 c-18 -34 -136 -150 -200 -196 -35 -26 -60 -47 -57
-47 25 0 137 47 175 73 25 17 50 31 54 29 5 -1 6 2 3 6 -3 5 3 17 14 27 17 16
16 7 -10 -56 -34 -82 -33 -82 37 11 l48 65 1 -70 c2 -122 42 -226 158 -419 40
-66 85 -143 99 -171 49 -99 89 -255 111 -439 5 -43 4 -48 -12 -43 -9 3 -60 17
-112 31 -91 25 -120 34 -240 78 -84 30 -177 33 -310 10 -63 -11 -154 -23 -202
-27 -126 -9 -277 -48 -370 -96 l-79 -42 -87 10 c-56 6 -116 6 -169 0 l-82 -10
-93 47 c-103 51 -218 81 -358 92 -47 3 -134 15 -194 25 -60 10 -133 19 -161
19 -59 0 -192 -32 -227 -53 -13 -8 -54 -22 -93 -31 -38 -8 -97 -24 -129 -36
-33 -11 -61 -20 -64 -20 -11 0 63 463 93 587 34 133 63 204 186 439 l101 195
36 -22 c85 -50 198 -64 324 -39 63 13 64 12 127 -20 161 -81 401 -107 831 -91
382 15 575 54 773 156 45 24 83 43 85 44 1 0 -2 -7 -7 -16z m-1884 -1224 c15
-6 48 -14 73 -19 25 -4 86 -20 135 -35 63 -19 121 -28 195 -31 93 -4 109 -7
143 -31 66 -46 77 -67 77 -148 0 -167 -91 -392 -205 -510 -105 -107 -204 -135
-477 -135 -290 1 -380 26 -446 124 -59 89 -77 169 -77 351 0 186 7 215 70 279
88 91 220 137 472 165 6 0 24 -4 40 -10z m1798 -4 c124 -13 285 -76 353 -138
13 -12 35 -40 48 -63 49 -82 50 -336 3 -476 -66 -198 -167 -241 -544 -227
-247 9 -334 36 -426 130 -115 119 -209 349 -209 515 0 59 11 88 44 118 47 42
69 50 141 52 163 5 386 58 368 87 -3 5 -2 8 3 5 5 -3 27 -2 49 2 22 5 56 7 75
5 19 -2 62 -7 95 -10z m-1519 -40 c18 -13 18 -14 -4 -8 -12 3 -25 9 -28 14 -8
14 10 11 32 -6z m-1318 -122 c5 -10 12 -45 16 -78 5 -50 4 -57 -6 -45 -37 45
-100 64 -126 38 -27 -27 -3 54 25 84 21 24 79 24 91 1z m3803 4 c19 -15 39
-50 39 -70 0 -10 -8 -13 -25 -9 -36 6 -85 -16 -122 -58 -28 -30 -33 -32 -33
-15 0 11 14 52 32 92 30 66 35 72 63 72 17 0 37 -5 46 -12z m-1866 -88 c7 -8
20 -52 28 -99 18 -105 75 -262 130 -355 49 -85 165 -203 228 -233 89 -43 179
-55 384 -54 194 0 339 17 424 47 124 43 191 155 230 385 l18 104 13 -109 c8
-61 14 -112 15 -115 1 -3 5 -23 9 -45 4 -22 11 -48 17 -57 5 -10 6 -18 2 -18
-5 0 -9 -16 -11 -35 -1 -20 -9 -46 -17 -59 -8 -12 -12 -26 -8 -29 3 -4 2 -7
-3 -7 -5 0 -10 -16 -12 -36 -1 -19 -7 -44 -13 -55 -11 -21 -17 -43 -26 -91 -3
-15 -14 -35 -24 -44 -10 -9 -19 -24 -18 -33 0 -12 3 -11 9 4 13 29 11 7 -3
-48 -7 -26 -20 -56 -28 -65 -9 -10 -16 -35 -17 -56 -1 -20 -8 -46 -16 -57 -13
-20 -14 -20 -19 -2 -4 15 -5 14 -6 -4 0 -13 4 -23 10 -23 5 0 3 -10 -5 -22 -9
-12 -16 -31 -16 -41 0 -11 -6 -17 -16 -15 -10 2 -19 -4 -21 -12 -4 -13 -3 -13
7 0 8 12 10 6 5 -25 -3 -21 -10 -42 -16 -46 -6 -3 -10 -9 -10 -13 3 -23 0 -30
-9 -16 -8 12 -10 9 -10 -13 0 -26 -20 -67 -47 -95 -7 -7 -13 -19 -13 -26 0
-21 -73 -116 -90 -117 -9 0 -10 -2 -3 -5 12 -5 -16 -55 -51 -89 -9 -9 -23 -30
-31 -46 -9 -16 -20 -29 -26 -29 -6 0 -7 5 -4 10 3 6 1 10 -5 10 -6 0 -10 -6
-9 -12 4 -36 -2 -50 -20 -45 -14 3 -17 0 -14 -12 2 -10 -4 -24 -13 -32 -16
-12 -17 -12 -10 1 4 8 0 6 -8 -4 -9 -11 -16 -24 -16 -29 0 -5 -7 -4 -16 4 -13
11 -15 9 -10 -12 4 -18 -1 -29 -24 -47 -17 -13 -30 -19 -30 -13 0 18 -18 13
-40 -11 -24 -26 -26 -38 -5 -38 8 0 12 6 9 14 -7 18 8 27 25 17 10 -7 3 -19
-27 -50 -45 -46 -52 -50 -45 -21 3 11 0 20 -6 20 -6 0 -8 -7 -4 -17 5 -13 2
-15 -11 -10 -14 5 -15 3 -7 -10 7 -14 -2 -29 -47 -75 -51 -52 -84 -75 -67 -48
3 6 1 10 -4 10 -6 0 -11 -9 -11 -21 0 -16 -4 -19 -17 -15 -10 4 -14 4 -11 0
14 -13 -21 -35 -45 -28 -15 3 -28 1 -32 -6 -5 -9 -1 -10 14 -5 11 3 21 3 21
-2 0 -10 -42 -38 -52 -35 -5 1 -8 -3 -8 -9 0 -6 -7 -8 -16 -5 -8 3 -12 2 -9
-4 8 -13 -65 -45 -97 -41 -20 2 -28 -2 -28 -13 0 -13 -6 -15 -26 -10 -21 5
-25 4 -19 -6 6 -10 4 -11 -11 -6 -10 5 -28 10 -39 12 l-20 4 20 -9 c15 -6 1
-10 -55 -15 -145 -13 -356 -9 -393 8 -9 5 -23 6 -31 3 -31 -12 -140 28 -132
49 3 8 -6 11 -27 10 -27 -1 -32 2 -29 19 2 15 1 17 -6 6 -11 -16 -16 -14 -94
46 -32 24 -58 52 -59 61 0 11 -2 12 -6 4 -3 -9 -18 -1 -46 25 -40 35 -62 63
-38 49 6 -4 11 -1 11 6 0 15 -76 65 -91 60 -6 -1 -5 7 1 19 11 19 10 20 -10 9
-13 -7 -20 -8 -18 -3 3 4 -16 26 -43 48 -26 22 -46 45 -44 51 2 6 -7 17 -21
24 -19 11 -22 19 -18 39 5 21 4 24 -7 14 -20 -20 -29 -15 -29 15 0 16 -3 22
-8 15 -5 -8 -19 2 -42 33 -19 25 -52 64 -72 86 -21 22 -38 46 -38 53 0 8 -3
15 -7 17 -21 9 -51 66 -42 79 15 23 10 34 -6 13 -8 -10 -15 -16 -16 -11 -1 4
-3 12 -4 17 -1 6 -3 15 -4 22 0 6 -4 9 -7 5 -7 -7 -44 60 -44 80 0 7 -5 12
-12 11 -12 -3 -30 61 -21 76 4 5 2 6 -3 3 -16 -9 -28 5 -47 58 -10 28 -25 66
-32 85 -7 20 -9 36 -4 38 17 7 9 22 -11 22 -20 0 -26 17 -22 63 1 10 -3 15 -8
12 -6 -3 -10 5 -10 19 0 13 -5 26 -11 28 -7 2 -12 23 -12 47 0 30 -3 39 -9 29
-11 -14 -7 10 7 47 l8 20 -16 -20 c-16 -20 -16 -19 -17 7 0 15 -5 30 -11 34
-6 3 -8 17 -4 33 4 14 3 22 -1 18 -12 -11 -75 192 -76 241 0 27 -5 45 -13 49
-10 3 -11 11 -4 29 6 17 6 23 -1 19 -16 -10 -11 51 5 65 12 10 12 16 4 26 -6
8 -8 21 -5 30 3 9 9 39 12 67 4 29 8 55 10 58 2 3 6 30 9 60 17 155 21 160 28
29 7 -140 33 -277 69 -367 74 -182 208 -234 608 -235 274 -2 366 23 481 129
125 116 218 304 259 523 13 72 19 87 40 98 31 16 116 10 135 -9z m1923 -197
c3 -99 0 -178 -7 -212 -12 -56 -48 -146 -56 -139 -2 3 8 47 22 99 21 81 25
116 25 231 0 75 -3 152 -7 170 -6 27 -5 32 6 22 9 -9 14 -61 17 -171z m-3983
121 c-11 -94 -11 -149 -4 -230 8 -75 40 -220 54 -243 3 -6 4 -10 1 -10 -18 0
-58 111 -68 189 -12 95 -2 341 13 341 6 0 7 -21 4 -47z m125 15 c51 -51 55
-74 21 -116 -36 -47 -96 -166 -106 -212 -7 -30 -9 -32 -16 -15 -13 34 -10 154
6 219 13 53 54 156 61 156 1 0 17 -14 34 -32z m3764 0 c46 -100 66 -228 51
-324 l-8 -49 -13 50 c-16 60 -24 76 -88 183 l-49 83 43 44 c24 25 45 45 47 45
1 0 9 -15 17 -32z m-14 -263 c71 -157 38 -252 -155 -453 -52 -54 -92 -102 -88
-106 4 -3 40 29 81 71 41 43 63 63 49 45 -34 -42 -157 -247 -157 -260 0 -5
-16 -24 -35 -41 -27 -24 -45 -31 -75 -31 -22 0 -40 3 -40 7 0 10 82 267 87
273 2 2 8 -2 13 -10 7 -12 10 -9 10 12 0 21 4 25 20 21 29 -8 46 11 59 62 7
28 17 45 26 45 8 0 15 3 15 8 0 4 21 19 48 34 41 24 68 46 107 90 27 29 -18
188 -76 269 -22 31 -22 54 1 113 l11 29 40 -69 c22 -38 49 -87 59 -109z
m-3694 5 c-74 -126 -84 -215 -29 -272 15 -16 56 -45 90 -65 55 -30 64 -40 74
-76 14 -48 33 -67 66 -67 33 0 30 28 -11 87 -39 58 -56 109 -56 175 0 99 14
76 70 -119 31 -109 74 -249 94 -311 20 -62 34 -117 31 -123 -4 -5 -20 -9 -36
-9 -60 0 -84 24 -169 166 -44 75 -79 139 -77 141 2 2 25 -20 52 -47 26 -28 50
-49 53 -45 3 3 -26 38 -65 78 -95 98 -172 194 -194 242 -39 84 -19 188 61 329
l44 77 19 -50 19 -49 -36 -62z m120 -95 c3 -14 3 -54 0 -88 -9 -81 7 -146 52
-215 35 -52 36 -76 4 -56 -9 6 -18 25 -20 43 -2 21 -14 40 -38 59 -61 48 -81
157 -43 237 24 51 36 56 45 20z m3413 -34 c26 -80 6 -173 -50 -226 -24 -22
-39 -46 -39 -60 0 -30 -29 -60 -43 -46 -7 7 1 27 26 63 47 70 61 125 53 215
-8 81 5 127 29 102 7 -8 17 -29 24 -48z m-79 -179 c-5 -22 -24 -56 -40 -77
-17 -21 -30 -42 -30 -48 0 -6 -2 -8 -5 -5 -3 2 -1 18 4 34 9 26 18 57 63 214
l13 45 3 -62 c2 -34 -2 -80 -8 -101z m-3429 -139 c13 -16 12 -17 -3 -4 -10 7
-18 15 -18 17 0 8 8 3 21 -13z m1064 -1351 c-3 -3 -11 0 -18 7 -9 10 -8 11 6
5 10 -3 15 -9 12 -12z"/>
<path d="M2138 3733 c12 -2 32 -2 45 0 12 2 2 4 -23 4 -25 0 -35 -2 -22 -4z"/>
<path d="M2238 3723 c6 -2 18 -2 25 0 6 3 1 5 -13 5 -14 0 -19 -2 -12 -5z"/>
<path d="M2298 3713 c7 -3 16 -2 19 1 4 3 -2 6 -13 5 -11 0 -14 -3 -6 -6z"/>
<path d="M1935 3676 c-97 -16 -126 -30 -190 -95 -49 -51 -49 -60 -1 -41 21 8
26 6 31 -13 10 -34 27 -67 36 -67 5 0 8 25 8 56 -1 38 4 61 15 73 24 26 115
49 221 57 l90 6 -38 -32 c-94 -80 -99 -199 -13 -283 l41 -40 -90 7 c-66 5
-103 13 -138 31 -54 27 -60 12 -8 -19 37 -21 222 -39 311 -30 67 7 262 43 269
49 8 9 -84 5 -118 -5 l-34 -10 24 28 c35 38 49 75 49 131 0 39 -7 59 -35 101
-19 29 -29 50 -21 47 8 -3 34 -11 58 -17 70 -19 152 -66 191 -109 48 -53 47
-40 -1 24 -90 119 -215 166 -441 164 -75 -1 -172 -7 -216 -13z m420 -102 c41
-44 27 -104 -24 -104 -23 0 -71 53 -71 79 0 55 54 69 95 25z m-229 -159 c4 -8
3 -22 0 -30 -8 -22 -46 -1 -46 25 0 24 38 28 46 5z"/>
<path d="M2498 3323 c7 -3 16 -2 19 1 4 3 -2 6 -13 5 -11 0 -14 -3 -6 -6z"/>
<path d="M3798 3733 c12 -2 30 -2 40 0 9 3 -1 5 -23 4 -22 0 -30 -2 -17 -4z"/>
<path d="M3708 3723 c6 -2 18 -2 25 0 6 3 1 5 -13 5 -14 0 -19 -2 -12 -5z"/>
<path d="M3648 3713 c7 -3 16 -2 19 1 4 3 -2 6 -13 5 -11 0 -14 -3 -6 -6z"/>
<path d="M3598 3703 c7 -3 16 -2 19 1 4 3 -2 6 -13 5 -11 0 -14 -3 -6 -6z"/>
<path d="M3603 3670 c-80 -21 -109 -34 -171 -80 -44 -31 -102 -111 -102 -139
0 -9 8 -3 19 14 40 65 111 112 215 144 89 27 101 27 70 -4 -71 -71 -71 -184 0
-264 20 -23 20 -24 1 -17 -26 10 -152 20 -144 13 3 -4 40 -13 82 -21 158 -31
230 -36 348 -27 115 8 171 25 182 55 4 10 -8 8 -46 -9 -35 -16 -80 -26 -137
-31 l-85 -6 36 25 c59 42 88 125 69 196 -12 44 -61 107 -94 122 -34 15 162 0
222 -17 74 -21 92 -42 92 -106 1 -51 1 -52 15 -28 8 14 14 33 15 43 0 20 8 21
47 6 l28 -10 -25 27 c-79 88 -102 99 -232 118 -144 22 -314 20 -405 -4z m294
-92 c33 -36 37 -64 13 -88 -47 -47 -132 30 -100 90 15 27 61 26 87 -2z m-228
-162 c12 -14 5 -46 -9 -46 -11 0 -40 29 -40 39 0 23 32 28 49 7z"/>
<path d="M3458 3323 c7 -3 16 -2 19 1 4 3 -2 6 -13 5 -11 0 -14 -3 -6 -6z"/>
<path d="M1421 3144 c0 -11 3 -14 6 -6 3 7 2 16 -1 19 -3 4 -6 -2 -5 -13z"/>
<path d="M4501 3084 c0 -11 3 -14 6 -6 3 7 2 16 -1 19 -3 4 -6 -2 -5 -13z"/>
<path d="M2915 2768 c-22 -12 -34 -23 -27 -26 10 -3 10 -7 0 -20 -7 -8 7 -1
31 16 46 33 80 39 128 22 l28 -10 -24 20 c-30 26 -84 25 -136 -2z"/>
<path d="M4422 2740 c0 -14 2 -19 5 -12 2 6 2 18 0 25 -3 6 -5 1 -5 -13z"/>
<path d="M2834 2631 c-10 -17 -39 -41 -65 -56 -52 -28 -69 -61 -69 -137 0 -55
32 -73 150 -84 223 -19 414 8 439 63 14 30 14 93 0 113 -8 11 -9 7 -4 -17 11
-55 -45 -112 -80 -83 -10 8 -15 31 -15 66 0 55 -14 100 -34 107 -8 3 -10 -14
-8 -55 4 -70 -14 -108 -54 -108 -14 0 -34 -5 -46 -11 -31 -17 -101 -14 -134 5
-65 38 -89 110 -65 194 12 40 7 41 -15 3z m-51 -128 c5 -42 -5 -74 -17 -54
-17 27 -24 69 -13 80 18 18 25 13 30 -26z"/>
<path d="M2460 2080 c146 -132 235 -181 360 -201 93 -14 312 -5 394 16 68 19
219 87 242 109 8 9 18 16 22 16 4 1 30 21 57 46 48 44 49 46 20 40 -29 -6
-154 -18 -340 -33 -201 -17 -521 -3 -755 33 l-35 5 35 -31z m260 -26 c200 -18
395 -15 650 10 74 8 136 12 138 11 8 -7 -154 -106 -205 -125 -213 -80 -487
-78 -641 5 -71 39 -182 130 -147 121 11 -2 103 -12 205 -22z"/>
<path d="M2983 1803 c-57 -2 -103 -6 -103 -10 0 -3 8 -11 17 -18 20 -15 170
-9 191 8 13 10 17 28 5 25 -5 -1 -54 -4 -110 -5z"/>
<path d="M3698 1483 c7 -3 16 -2 19 1 4 3 -2 6 -13 5 -11 0 -14 -3 -6 -6z"/>
<path d="M2340 1430 c0 -14 29 -32 47 -28 14 3 11 7 -14 20 -18 9 -33 13 -33
8z"/>
<path d="M3610 1415 c-10 -12 -10 -15 3 -15 19 0 31 16 18 24 -5 3 -14 -1 -21
-9z"/>
<path d="M2410 1356 c0 -2 12 -12 28 -21 l27 -18 -19 21 c-17 20 -36 29 -36
18z"/>
<path d="M3048 1183 c7 -3 16 -2 19 1 4 3 -2 6 -13 5 -11 0 -14 -3 -6 -6z"/>
<path d="M1401 2764 c0 -11 3 -14 6 -6 3 7 2 16 -1 19 -3 4 -6 -2 -5 -13z"/>
<path d="M3135 86 c-34 -18 -57 -21 -150 -21 l-111 0 30 -32 c26 -29 35 -33
83 -33 56 0 90 16 163 79 41 35 39 36 -15 7z"/>
</g>
</svg>
