<?xml version="1.0" standalone="no"?>
<!DOCTYPE svg PUBLIC "-//W3C//DTD SVG 20010904//EN"
 "http://www.w3.org/TR/2001/REC-SVG-20010904/DTD/svg10.dtd">
<svg version="1.0" xmlns="http://www.w3.org/2000/svg"
 width="364.000000pt" height="401.000000pt" viewBox="0 0 364.000000 401.000000"
 preserveAspectRatio="xMidYMid meet">

<g transform="translate(0.000000,401.000000) scale(0.100000,-0.100000)"
fill="#000000" stroke="none">
<path d="M0 2174 l0 -1836 39 7 c32 5 58 -1 133 -30 51 -19 121 -49 156 -65
34 -17 68 -30 75 -30 6 0 35 -12 62 -25 28 -14 56 -25 63 -25 6 0 12 -4 12
-10 0 -5 5 -10 11 -10 7 0 89 -34 183 -75 l171 -75 115 0 115 0 -55 23 c-30
12 -75 29 -100 36 -25 8 -63 22 -86 32 -22 11 -44 19 -48 19 -4 0 -22 6 -39
14 -54 24 -165 66 -175 66 -5 0 -33 13 -63 29 -30 15 -72 31 -95 34 -22 4 -54
14 -72 22 -17 9 -37 13 -43 10 -5 -4 -16 0 -22 10 -12 15 -31 22 -65 24 -7 1
-10 6 -7 11 4 6 -6 10 -23 10 -31 0 -82 33 -70 45 11 11 210 75 234 75 12 0
41 7 65 16 24 9 55 18 69 20 73 9 111 18 116 25 3 5 23 9 44 9 21 0 41 4 44 9
3 4 31 11 63 15 32 3 83 11 113 17 30 6 77 11 104 12 l48 2 20 -50 c11 -27 28
-59 39 -71 23 -24 16 -34 -23 -34 -15 0 -28 -4 -28 -10 0 -5 4 -10 9 -10 5 0
17 -3 27 -7 12 -4 15 -3 10 5 -12 19 5 14 61 -20 59 -36 68 -58 24 -58 -40 0
-101 -26 -80 -35 8 -3 28 -1 43 5 15 5 47 10 72 10 46 0 124 -20 124 -32 0 -4
36 -10 80 -14 71 -6 87 -11 147 -50 38 -24 71 -44 76 -44 4 0 26 -8 50 -19 23
-10 67 -23 97 -29 30 -6 82 -16 115 -23 33 -6 83 -11 110 -11 164 0 175 1 215
22 22 11 45 31 51 43 12 28 48 89 59 101 5 5 24 2 44 -8 31 -14 42 -15 78 -5
24 7 45 13 48 13 20 4 81 34 110 55 84 62 123 102 157 158 14 24 27 43 30 43
11 0 89 -22 108 -31 29 -13 254 -85 292 -94 18 -3 35 -11 38 -16 4 -5 17 -9
31 -9 14 0 53 -9 87 -19 34 -11 101 -32 149 -46 l87 -26 4 -137 c1 -75 4 766
5 1871 l2 2007 -1820 0 -1820 0 0 -1836z m2755 1779 c37 -27 74 -52 83 -58 10
-5 19 -13 22 -16 3 -3 50 -35 105 -71 55 -36 120 -82 145 -102 25 -20 50 -36
56 -36 6 0 28 -15 50 -33 21 -18 49 -39 60 -47 12 -8 57 -40 100 -70 44 -30
86 -59 95 -65 37 -23 105 -71 117 -82 7 -7 20 -13 28 -13 12 0 14 -103 14
-725 l0 -725 -27 -1 -28 -2 28 -4 27 -4 0 -294 0 -295 -26 10 c-15 6 -38 18
-53 28 -54 36 -279 140 -416 192 -119 45 -115 39 -90 145 17 70 19 141 5 150
-5 3 -19 -2 -30 -13 -12 -11 -31 -18 -48 -16 -15 2 -49 6 -75 10 -54 7 -70 -5
-81 -60 -4 -16 -17 -44 -31 -62 -24 -31 -26 -32 -53 -18 -16 8 -51 17 -78 20
-27 3 -68 13 -92 20 -24 8 -47 12 -51 9 -13 -7 -195 27 -208 39 -10 9 -4 17
25 35 20 13 53 43 72 67 19 25 42 52 51 62 9 9 24 32 34 51 l17 34 92 -6 c109
-8 243 -26 271 -37 45 -19 67 -22 63 -9 -2 7 -12 13 -21 15 -21 3 -107 22
-158 35 -20 5 -48 9 -62 9 -13 0 -27 7 -31 15 -3 9 0 15 8 15 7 0 42 19 77 43
52 34 75 43 124 47 l60 6 -42 8 c-24 5 -43 11 -43 13 0 3 26 35 59 71 32 37
66 81 75 99 9 18 29 52 46 76 16 25 30 52 30 60 0 9 4 18 9 21 17 11 71 200
79 278 8 72 3 164 -14 262 l-6 39 46 -5 c25 -3 46 -4 46 -1 0 8 -28 33 -38 33
-5 0 -15 7 -22 15 -7 8 -18 15 -24 15 -6 0 -4 -6 5 -13 9 -7 14 -18 12 -24 -8
-22 -45 5 -43 30 3 35 0 43 -10 27 -8 -12 -10 -11 -10 6 0 38 -140 166 -202
185 -50 16 -182 11 -231 -8 -101 -40 -249 -165 -278 -236 -12 -28 -15 -29 -57
-23 -25 3 -80 19 -121 35 -42 16 -85 33 -96 37 -89 34 -363 50 -522 30 -82
-10 -95 1 -38 31 94 49 185 93 235 113 30 12 69 28 85 36 17 7 63 22 104 33
61 17 99 37 88 47 -6 6 -261 -65 -312 -86 -16 -7 -39 -16 -50 -19 -35 -13
-219 -104 -255 -127 -44 -28 -119 -49 -132 -36 -20 20 154 172 284 248 10 6
33 24 50 39 23 20 28 30 18 33 -8 3 -16 0 -18 -6 -2 -7 -9 -12 -16 -12 -7 0
-30 -13 -51 -30 -21 -16 -43 -30 -49 -30 -7 0 -21 -8 -32 -18 -10 -9 -50 -42
-89 -72 -38 -30 -71 -58 -73 -62 -2 -5 -8 -8 -14 -8 -5 0 -25 -16 -44 -37 -19
-20 -36 -34 -38 -32 -1 2 -11 58 -20 124 -30 209 -84 335 -155 365 -31 12 -61
10 -458 -35 -60 -7 -62 -7 -94 26 -18 19 -35 33 -37 31 -2 -2 -16 12 -30 30
-15 18 -42 48 -60 67 l-33 34 38 13 c23 9 84 14 157 14 66 0 117 3 113 6 -3 3
-63 5 -134 4 -195 -4 -203 -3 -225 25 -10 14 -31 37 -46 52 -15 16 -33 36 -41
46 -13 16 48 17 1237 17 l1251 0 66 -47z m-2698 -469 c-3 -3 -12 -4 -19 -1 -8
3 -5 6 6 6 11 1 17 -2 13 -5z m0 -30 c-3 -3 -12 -4 -19 -1 -8 3 -5 6 6 6 11 1
17 -2 13 -5z m473 -104 c0 -5 -5 -10 -11 -10 -5 0 -7 5 -4 10 3 6 8 10 11 10
2 0 4 -4 4 -10z m-237 -117 c-7 -2 -19 -2 -25 0 -7 3 -2 5 12 5 14 0 19 -2 13
-5z m1306 -124 c66 -21 81 -32 101 -73 16 -35 18 -48 9 -79 -5 -20 -12 -37
-14 -37 -2 0 -4 20 -3 45 0 35 -5 52 -23 71 -40 43 -72 54 -158 54 -144 0
-241 -32 -336 -111 -57 -47 -75 -35 -20 15 106 97 323 153 444 115z m711 -75
c59 -8 110 -25 132 -46 7 -7 26 -19 41 -26 21 -9 27 -17 22 -29 -3 -10 -3 -14
1 -10 16 15 34 -18 34 -60 0 -35 -7 -54 -31 -84 -17 -21 -33 -38 -37 -37 -4 1
-17 -3 -29 -10 -73 -40 -263 -33 -358 13 -97 48 -132 95 -126 171 3 27 -12 33
-115 40 -56 5 -84 11 -84 19 0 27 174 27 196 -1 9 -11 17 -9 45 10 30 20 94
45 154 60 20 4 52 2 155 -10z m-642 -146 c-8 -12 -21 -24 -29 -27 -8 -2 -3 8
11 22 31 33 37 34 18 5z m946 -14 c22 -8 22 -89 1 -98 -30 -11 -44 4 -38 42 9
65 10 66 37 56z m-990 -39 c-10 -8 -25 -15 -31 -15 -7 0 -13 -4 -13 -8 0 -9
-102 -54 -150 -67 -73 -19 -234 -9 -264 17 -6 5 -20 15 -31 23 -20 14 -20 14
1 15 11 0 39 -9 62 -20 46 -22 154 -27 232 -9 52 11 173 60 178 71 2 5 11 8
20 8 13 0 12 -3 -4 -15z m955 -93 c5 2 10 0 10 -5 2 -9 -29 -70 -38 -77 -4 -3
-17 -22 -30 -43 -13 -21 -26 -36 -29 -32 -3 3 -4 32 -3 66 3 71 31 115 62 98
10 -5 22 -8 28 -7z m-927 -485 c25 -31 18 -50 -22 -58 -42 -9 -80 21 -80 64 0
28 1 29 43 22 25 -4 49 -16 59 -28z m592 -28 c-3 -5 -10 -7 -15 -3 -5 3 -7 10
-3 15 3 5 10 7 15 3 5 -3 7 -10 3 -15z m-464 -43 c0 -2 -11 -6 -25 -8 -14 -3
-25 -1 -25 3 0 5 11 9 25 9 14 0 25 -2 25 -4z m280 -32 c0 -8 -4 -12 -10 -9
-5 3 -10 10 -10 16 0 5 5 9 10 9 6 0 10 -7 10 -16z m-250 -34 c0 -5 -4 -10 -9
-10 -6 0 -13 5 -16 10 -3 6 1 10 9 10 9 0 16 -4 16 -10z m73 -55 c9 -23 -9
-26 -28 -5 -17 19 -17 20 2 20 12 0 23 -7 26 -15z m-59 -31 c9 -24 4 -24 -18
-3 -16 16 -17 19 -4 19 9 0 19 -7 22 -16z m163 -19 c0 -8 -4 -15 -8 -15 -4 0
-15 -3 -24 -7 -15 -5 -16 -3 -6 15 13 25 38 29 38 7z m48 5 c-3 -5 -10 -10
-16 -10 -5 0 -9 5 -9 10 0 6 7 10 16 10 8 0 12 -4 9 -10z m-235 -40 c0 -5 -2
-10 -4 -10 -3 0 -8 5 -11 10 -3 6 -1 10 4 10 6 0 11 -4 11 -10z m1095 -403 c4
-21 14 -41 21 -44 8 -3 14 -16 14 -29 0 -14 7 -27 15 -30 16 -6 15 -24 -7
-151 -10 -60 -9 -64 13 -82 24 -19 24 -19 4 -41 -26 -29 -130 -78 -183 -86
-42 -7 -43 -6 -37 17 5 21 -3 29 -77 73 -46 27 -102 62 -125 77 -23 16 -46 29
-52 29 -6 0 -11 5 -11 10 0 6 -5 10 -12 10 -6 0 -54 27 -105 60 -52 33 -98 60
-103 60 -4 0 -10 3 -12 8 -1 4 -26 22 -53 41 -29 19 -52 42 -52 52 -2 24 -3
24 53 -6 26 -14 49 -23 52 -20 3 3 0 5 -6 5 -7 0 -12 6 -12 13 0 8 -16 22 -35
33 -19 10 -35 22 -35 26 0 5 -5 8 -11 8 -6 0 -17 7 -25 15 -11 11 -12 15 -3
15 12 0 45 -20 122 -72 16 -11 31 -17 34 -14 7 7 -55 66 -70 66 -15 0 -47 31
-47 46 0 10 11 8 46 -6 55 -24 55 -24 47 -4 -4 12 12 7 58 -17 69 -37 169
-108 169 -121 0 -4 6 -8 13 -8 7 0 31 -15 53 -33 36 -30 113 -87 216 -160 22
-15 42 -26 45 -23 7 7 12 60 6 69 -3 5 -11 0 -18 -10 -13 -17 -15 -17 -42 -1
-23 14 -28 24 -27 53 1 20 6 46 12 58 17 36 59 129 73 165 19 43 29 40 29 -8
0 -23 -5 -40 -11 -40 -8 0 -8 -4 0 -14 8 -10 9 -15 1 -18 -6 -2 -12 -27 -12
-56 -1 -29 -5 -55 -10 -58 -4 -3 -8 -15 -8 -27 0 -16 3 -18 11 -10 14 14 48
208 42 234 -3 11 0 19 7 19 8 0 10 8 7 21 -3 11 0 43 6 71 l12 51 7 -89 c3
-49 10 -106 13 -127z m116 140 c-5 -23 -16 -76 -22 -117 -16 -100 -34 -118
-24 -25 4 39 11 74 16 80 5 5 9 26 9 48 0 21 5 48 12 60 17 32 22 4 9 -46z
m-1271 -267 c0 -5 -4 -10 -10 -10 -5 0 -10 5 -10 10 0 6 5 10 10 10 6 0 10 -4
10 -10z m-243 -162 c-3 -8 -6 -5 -6 6 -1 11 2 17 5 13 3 -3 4 -12 1 -19z m274
-22 c5 3 9 0 9 -6 0 -15 -23 -7 -26 8 -1 7 0 8 3 2 2 -5 9 -8 14 -4z m-31 -52
c0 -32 -1 -34 -16 -20 -9 10 -13 24 -9 36 10 32 25 23 25 -16z m-20 -101 c0
-21 -3 -24 -9 -14 -5 8 -7 20 -4 28 8 21 13 15 13 -14z m-223 -25 c-3 -7 -5
-2 -5 12 0 14 2 19 5 13 2 -7 2 -19 0 -25z m-17 -88 c0 -22 -4 -40 -9 -40 -5
0 -8 18 -7 40 0 22 4 40 8 40 5 0 8 -18 8 -40z m203 12 c-3 -12 -9 -19 -14
-16 -5 3 -3 14 3 24 15 24 19 21 11 -8z m-246 -44 c-3 -8 -6 -5 -6 6 -1 11 2
17 5 13 3 -3 4 -12 1 -19z m214 -35 c-4 -38 -4 -38 -13 -10 -5 15 -15 27 -21
28 -7 1 -1 5 13 9 14 4 25 8 25 9 1 1 -1 -16 -4 -36z m-69 -18 c-3 -36 -8 -45
-23 -45 -14 0 -19 7 -19 29 0 41 9 61 29 61 13 0 15 -8 13 -45z m48 -20 c0 -5
-5 -17 -10 -25 -9 -13 -11 -13 -20 0 -5 8 -9 24 -9 35 1 16 2 16 9 -5 8 -25 8
-24 9 5 1 23 3 27 11 15 5 -8 10 -19 10 -25z m1264 -21 c39 -9 94 -22 121 -30
28 -7 61 -16 75 -18 14 -3 113 -27 220 -54 107 -27 223 -55 258 -62 l62 -14 0
-173 0 -173 -27 6 c-31 7 -174 49 -241 70 -23 8 -60 17 -82 20 -22 4 -43 11
-46 15 -3 5 -13 9 -21 9 -16 0 -163 42 -208 60 -11 4 -45 13 -75 20 -74 17
-96 28 -110 55 -16 30 -46 37 -125 29 -74 -8 -84 4 -39 47 14 13 33 38 41 54
31 61 98 155 112 155 7 0 45 -7 85 -16z m-1296 -59 c-2 -22 -7 -25 -43 -24
-22 0 -55 -2 -72 -6 -18 -4 -33 -3 -33 2 0 5 8 9 18 10 53 5 117 22 120 32 6
19 12 12 10 -14z m-671 -761 c-3 -3 -12 -4 -19 -1 -8 3 -5 6 6 6 11 1 17 -2
13 -5z"/>
<path d="M2000 3950 c-25 -4 -93 -11 -152 -15 -60 -4 -108 -10 -108 -14 0 -7
31 -7 205 4 50 3 100 6 113 6 25 1 29 14 6 23 -9 3 -16 5 -17 5 -1 -1 -22 -5
-47 -9z"/>
<path d="M1420 3910 c-82 -6 -81 -6 45 -8 72 -1 137 3 145 8 17 11 -45 11
-190 0z"/>
<path d="M1085 3891 c11 -4 67 -4 125 -1 l105 7 -125 1 c-69 0 -116 -3 -105
-7z"/>
<path d="M773 3873 c42 -2 112 -2 155 0 42 1 7 3 -78 3 -85 0 -120 -2 -77 -3z"/>
<path d="M3512 1900 c10 -6 25 -7 40 -1 20 9 18 10 -17 10 -31 0 -36 -2 -23
-9z"/>
<path d="M3288 1883 c28 -2 76 -2 105 0 28 2 5 3 -53 3 -58 0 -81 -1 -52 -3z"/>
<path d="M3023 1863 c26 -2 68 -2 95 0 26 2 4 3 -48 3 -52 0 -74 -1 -47 -3z"/>
<path d="M2195 3023 c-57 -9 -125 -27 -125 -35 0 -4 -6 -8 -14 -8 -21 0 -66
-58 -66 -85 0 -137 311 -213 470 -116 39 24 49 43 50 87 0 45 -25 76 -90 111
-50 27 -176 53 -225 46z"/>
<path d="M2280 1546 c0 -2 6 -9 14 -15 10 -9 15 -8 20 4 4 10 -1 15 -14 15
-11 0 -20 -2 -20 -4z"/>
<path d="M2275 1490 c3 -5 8 -10 11 -10 2 0 4 5 4 10 0 6 -5 10 -11 10 -5 0
-7 -4 -4 -10z"/>
</g>
</svg>
