<?xml version="1.0" standalone="no"?>
<!DOCTYPE svg PUBLIC "-//W3C//DTD SVG 20010904//EN"
 "http://www.w3.org/TR/2001/REC-SVG-20010904/DTD/svg10.dtd">
<svg version="1.0" xmlns="http://www.w3.org/2000/svg"
 width="623.000000pt" height="566.000000pt" viewBox="0 0 623.000000 566.000000"
 preserveAspectRatio="xMidYMid meet">

<g transform="translate(0.000000,566.000000) scale(0.100000,-0.100000)"
fill="#000000" stroke="none">
<path d="M0 2830 l0 -2830 104 0 c85 0 105 3 110 16 10 26 7 34 -11 34 -22 0
-56 54 -63 99 -4 29 -10 36 -38 43 -43 12 -40 33 9 58 54 28 46 44 -24 48 -55
3 -57 4 -57 32 0 40 36 52 61 19 17 -23 18 -23 39 -4 20 18 21 18 36 -3 20
-29 32 -21 26 19 -4 28 -7 30 -33 25 -34 -7 -36 0 -9 29 10 11 16 25 12 30
-12 18 -80 36 -106 29 l-26 -6 0 226 c0 139 4 226 10 226 5 0 7 7 4 15 -10 25
56 47 95 32 37 -14 39 -27 7 -58 -31 -30 -19 -64 20 -55 31 8 68 -26 59 -55
-4 -12 -1 -21 10 -25 23 -9 28 1 13 25 -13 22 -8 31 27 45 6 2 5 9 -3 17 -12
13 -17 49 -6 49 17 0 114 -63 109 -70 -3 -5 -27 -23 -54 -41 -27 -17 -52 -40
-55 -51 -4 -17 -10 -19 -40 -14 -29 6 -36 4 -36 -9 0 -8 7 -15 15 -15 23 0 28
-24 15 -64 -9 -28 -8 -40 4 -65 9 -16 16 -43 16 -59 0 -35 37 -93 68 -107 27
-12 24 -29 -6 -33 -25 -4 -52 -38 -52 -64 0 -22 23 -23 44 -3 17 17 36 20 36
5 0 -6 11 -16 25 -22 27 -12 31 -33 13 -72 -9 -21 -8 -29 5 -44 10 -10 17 -28
17 -39 0 -53 84 -55 132 -2 15 16 31 29 36 29 10 0 52 -34 93 -76 27 -26 59
-30 67 -6 2 6 -3 12 -12 12 -9 0 -16 4 -16 9 0 13 27 33 42 29 18 -4 92 27
106 45 12 13 29 14 70 1 9 -3 10 -9 3 -23 -6 -10 -8 -21 -4 -24 10 -10 35 23
29 38 -3 8 -3 15 0 15 13 0 61 -31 76 -49 21 -25 52 -27 92 -6 32 17 76 20 76
5 0 -5 -19 -15 -43 -21 -49 -14 -62 -23 -53 -38 5 -7 13 -8 25 -2 9 5 23 6 30
1 17 -10 -21 -50 -48 -50 -10 0 -21 -7 -25 -15 -5 -13 20 -15 184 -15 120 0
190 4 190 10 0 6 11 10 24 10 14 0 28 -4 31 -10 4 -6 70 -10 164 -10 155 0
158 0 181 25 30 31 48 31 94 0 50 -34 86 -34 86 0 0 29 25 44 43 26 9 -10 7
-17 -12 -32 -23 -19 -12 -19 988 -19 l1012 0 -35 45 -34 46 40 78 c25 47 53
86 72 99 30 20 161 52 216 52 47 0 109 -31 129 -65 13 -23 29 -34 53 -39 18
-3 69 -21 113 -39 99 -41 118 -65 91 -121 -15 -32 -21 -37 -42 -32 -15 4 -30
1 -39 -7 -11 -12 15 -14 176 -16 183 -2 189 -1 189 19 0 15 21 30 88 63 l87
44 0 50 c0 27 6 57 14 66 8 10 11 27 7 43 -5 18 -2 30 10 38 14 11 15 15 3 35
-8 12 -29 31 -46 42 -36 23 -41 40 -17 63 18 19 12 18 92 6 49 -7 71 -5 100 6
66 27 87 38 103 57 15 18 17 18 55 2 36 -15 44 -15 111 0 61 14 73 20 73 36 0
18 4 20 33 13 36 -8 85 -11 307 -18 85 -3 170 -8 187 -11 l33 -6 3 -277 c1
-152 3 998 5 2556 l2 2832 -3115 0 -3115 0 0 -2830z m5590 2790 c0 -14 7 -20
23 -21 46 -1 -36 -26 -111 -33 -72 -7 -74 -7 -70 15 2 18 13 25 56 34 29 7 55
15 59 19 15 14 43 5 43 -14z m-1435 -390 c-3 -5 -15 -10 -26 -10 -16 0 -19 -5
-14 -20 4 -11 2 -20 -4 -20 -6 0 -11 -6 -11 -14 0 -8 -7 -17 -16 -20 -8 -3
-12 -2 -9 3 3 5 1 12 -5 16 -5 3 -10 0 -10 -8 0 -8 -13 -17 -30 -20 -17 -4
-30 -13 -30 -21 0 -9 -6 -13 -14 -10 -8 3 -17 0 -21 -6 -6 -9 -9 -9 -15 0 -6
10 -14 7 -32 -11 -21 -21 -34 -25 -86 -24 -34 0 -62 -3 -62 -7 0 -3 -22 -11
-50 -18 -27 -7 -50 -16 -50 -21 0 -5 -18 -6 -40 -3 -34 6 -43 3 -60 -17 l-19
-24 8 30 c15 55 60 133 88 152 50 35 103 54 181 68 94 15 336 19 327 5z m1180
-159 c39 -14 57 -29 83 -67 29 -42 33 -55 28 -89 -6 -51 -71 -192 -136 -300
-27 -44 -54 -93 -59 -108 -6 -15 -29 -55 -51 -88 -22 -33 -40 -63 -40 -67 0
-4 -16 -33 -35 -64 -19 -32 -57 -108 -85 -170 -28 -62 -62 -137 -76 -166 -16
-35 -24 -70 -24 -107 0 -48 2 -55 20 -55 14 0 20 7 20 23 0 29 25 108 49 161
11 22 29 64 41 91 24 57 31 52 49 -36 24 -116 9 -264 -36 -365 -29 -63 -98
-172 -213 -333 -58 -80 -116 -162 -130 -182 -113 -164 -176 -235 -391 -450
-130 -130 -163 -158 -198 -166 -73 -19 -170 19 -291 113 -76 59 -344 201 -497
265 l-83 34 0 41 c0 22 -3 44 -7 47 -12 12 -33 -15 -33 -42 l0 -27 -102 33
c-129 42 -223 68 -318 87 -234 46 -654 63 -798 32 -40 -9 -79 -16 -86 -16 -6
0 -22 20 -34 45 -12 25 -26 45 -31 45 -21 0 -22 -23 -1 -62 11 -22 20 -41 18
-43 -2 -1 -30 -9 -63 -17 -57 -15 -279 -97 -355 -132 -52 -25 -220 -133 -304
-198 -82 -64 -123 -74 -153 -38 -10 11 -23 20 -30 20 -30 0 -3 -50 41 -80 l25
-16 -54 -63 c-30 -34 -55 -65 -55 -69 0 -4 -12 -20 -26 -37 -14 -16 -37 -50
-52 -75 -35 -63 -51 -80 -91 -96 -47 -20 -73 -18 -111 9 -36 24 -68 99 -72
166 -6 106 48 352 117 536 76 200 256 519 387 685 40 51 56 64 75 62 22 -3 22
-1 16 45 -3 26 -14 59 -23 73 -61 90 -90 136 -90 142 0 6 -153 234 -232 348
-62 88 -128 192 -141 221 -31 71 -15 138 42 178 73 52 123 36 319 -101 405
-285 507 -349 598 -377 l53 -17 -83 -84 c-45 -47 -104 -112 -131 -145 -28 -33
-52 -62 -55 -65 -28 -28 -157 -190 -195 -245 -26 -38 -63 -89 -82 -112 -78
-97 -231 -483 -253 -637 -9 -62 -9 -93 0 -124 18 -70 31 -49 29 51 0 65 5 112
19 162 26 91 102 288 146 379 50 103 194 306 319 448 249 282 290 328 296 328
4 0 47 36 96 81 189 170 390 278 720 388 277 92 453 133 620 145 l70 5 -114
-55 c-63 -30 -138 -71 -165 -92 -28 -20 -69 -49 -91 -64 -151 -102 -512 -436
-651 -603 -106 -126 -260 -402 -327 -583 -27 -74 -38 -192 -17 -192 6 0 10 17
10 38 0 79 56 219 163 405 34 59 79 137 99 173 81 143 172 243 419 459 320
281 439 366 651 463 l137 63 168 -12 c195 -13 373 -42 598 -98 135 -34 358
-104 375 -119 3 -2 -6 -12 -19 -21 -111 -74 -357 -281 -491 -412 -90 -89 -295
-327 -366 -424 -28 -38 -88 -133 -134 -210 -45 -77 -98 -162 -116 -190 -81
-122 -137 -303 -84 -270 6 3 10 14 10 23 1 73 272 526 426 713 43 53 116 143
162 201 76 97 143 163 232 229 19 15 87 71 150 125 141 121 252 204 274 204
32 0 88 -29 84 -44 -5 -24 -196 -213 -229 -226 -16 -7 -29 -19 -29 -26 0 -26
46 -14 103 25 53 38 321 305 437 436 55 62 173 181 272 274 32 30 72 57 90 61
18 4 33 8 33 9 0 1 23 -7 50 -18z m-1808 -163 c-3 -8 -6 -5 -6 6 -1 11 2 17 5
13 3 -3 4 -12 1 -19z m98 -32 c11 -2 -10 -4 -47 -5 -38 0 -68 2 -68 7 0 7 67
6 115 -2z m158 -23 c-7 -2 -21 -2 -30 0 -10 3 -4 5 12 5 17 0 24 -2 18 -5z
m133 -19 c44 -9 90 -23 104 -31 15 -9 17 -11 5 -7 -11 4 -67 17 -125 30 -58
12 -95 23 -84 23 12 1 57 -6 100 -15z m361 -90 c-3 -3 -12 -4 -19 -1 -8 3 -5
6 6 6 11 1 17 -2 13 -5z m1229 -410 c14 -4 23 -11 21 -18 -2 -6 -37 -37 -79
-68 -71 -55 -76 -57 -109 -47 -19 5 -51 10 -71 11 -21 0 -38 2 -38 3 0 2 32
18 71 36 39 18 90 48 113 66 22 18 47 31 54 28 8 -3 25 -8 38 -11z m-3816
-1424 c36 -19 118 -99 162 -160 119 -164 190 -500 142 -669 -38 -133 -74 -163
-178 -149 -33 5 -79 18 -101 30 -144 77 -265 257 -294 438 -16 98 -14 251 5
307 19 58 70 161 93 187 40 47 100 52 171 16z m1711 -56 c195 -85 364 -177
447 -240 105 -82 174 -118 237 -124 49 -5 50 -6 53 -41 5 -57 -59 -210 -124
-296 -25 -33 -129 -110 -192 -142 -112 -57 -264 -49 -412 22 -113 54 -196 138
-251 252 -35 73 -38 89 -43 186 -8 165 20 276 95 377 28 37 46 52 63 52 13 0
70 -21 127 -46z m1710 -111 c1 -10 0 -26 -1 -37 -1 -11 3 -15 9 -12 18 12 13
-28 -20 -147 -30 -107 -58 -178 -59 -148 0 10 -8 7 -27 -10 -43 -39 -77 -57
-114 -61 -26 -2 -35 -8 -39 -28 -6 -23 -7 -23 -13 10 -4 19 -9 78 -12 130 -2
52 -1 80 1 62 8 -48 28 -34 35 24 3 27 7 47 7 44 1 -3 37 28 81 70 83 80 131
120 144 120 4 0 8 -8 8 -17z m409 -186 c20 -17 69 -61 110 -97 183 -160 220
-202 220 -250 0 -37 -30 -68 -81 -85 -47 -16 -57 -16 -147 0 -145 25 -201 35
-262 50 -45 11 -49 13 -22 14 32 1 44 15 20 24 -22 7 -13 95 11 116 12 10 21
29 20 42 l-1 24 -8 -25 c-5 -15 -8 -18 -9 -8 -1 9 -3 22 -6 30 -3 7 6 25 20
40 14 15 25 34 25 43 0 9 16 35 35 57 19 23 32 45 29 49 -12 20 13 7 46 -24z
m405 -277 c4 -6 -6 -10 -24 -10 -16 0 -33 5 -36 10 -4 6 6 10 24 10 16 0 33
-4 36 -10z m259 -41 c-8 -8 -14 -21 -14 -27 0 -18 -37 -24 -77 -13 -20 6 -47
8 -60 5 -28 -7 -73 3 -73 16 0 6 6 10 14 10 7 0 19 6 25 14 8 9 37 13 105 12
85 -1 93 -3 80 -17z m-1221 -74 c-3 -9 -8 -14 -10 -11 -3 3 -2 9 2 15 9 16 15
13 8 -4z m-76 -37 c-3 -8 -6 -5 -6 6 -1 11 2 17 5 13 3 -3 4 -12 1 -19z m43
-35 c-11 -17 -11 -17 -6 0 3 10 6 24 7 30 0 9 2 9 5 0 3 -7 0 -20 -6 -30z
m767 -27 c16 -16 -39 -46 -82 -46 -52 0 -107 18 -102 34 7 22 164 32 184 12z
m233 -57 c0 -5 -12 -11 -27 -15 -16 -3 -42 -12 -60 -20 -35 -16 -79 -18 -88
-5 -10 17 91 57 135 53 22 -2 40 -8 40 -13z m-356 -20 c-3 -5 -10 -7 -15 -3
-5 3 -7 10 -3 15 3 5 10 7 15 3 5 -3 7 -10 3 -15z m-4264 -44 c6 3 10 2 10 -2
0 -13 -83 -148 -145 -236 -30 -43 -55 -87 -55 -98 0 -11 20 -59 44 -107 90
-175 99 -182 202 -139 130 54 106 7 -31 -64 -101 -52 -99 -52 -168 47 -67 95
-86 136 -102 213 -16 75 -18 69 70 206 28 42 67 104 88 136 33 53 39 59 57 49
11 -6 25 -8 30 -5z m1300 -2 c0 -5 -7 -16 -15 -27 -27 -36 -144 -409 -160
-511 -8 -55 -18 -110 -20 -122 -4 -15 -1 -23 8 -23 17 0 27 33 67 224 17 82
41 179 52 215 25 83 106 241 127 249 27 10 208 -27 273 -56 80 -37 121 -71
148 -126 20 -42 20 -50 11 -267 -10 -242 -6 -591 9 -758 18 -192 14 -251 -21
-317 -73 -141 -211 -223 -424 -255 -206 -30 -519 34 -679 138 -127 83 -227
325 -210 512 16 186 64 347 169 567 64 133 100 191 190 304 133 168 180 204
315 241 67 18 160 25 160 12z m3060 3 c0 -11 -19 -15 -25 -6 -3 5 1 10 9 10 9
0 16 -2 16 -4z m65 -26 c3 -5 -3 -10 -14 -10 -12 0 -21 5 -21 10 0 6 6 10 14
10 8 0 18 -4 21 -10z m388 -15 c20 -8 50 -15 67 -15 20 0 30 -5 30 -15 0 -8
-7 -15 -15 -15 -8 0 -15 -4 -15 -10 0 -5 7 -10 15 -10 9 0 15 -9 15 -25 0 -21
-5 -25 -28 -25 -27 0 -52 -15 -52 -33 0 -4 14 -13 30 -18 44 -16 37 -31 -12
-27 -37 3 -43 6 -40 24 2 17 -6 22 -59 35 -34 8 -64 20 -67 27 -2 6 3 12 11
12 9 0 29 12 46 26 25 21 29 29 21 44 -23 43 -7 50 53 25z m-814 -6 c37 -13
38 -19 10 -45 -20 -18 -21 -18 -35 0 -18 25 -109 29 -181 9 -35 -9 -58 -11
-69 -5 -56 32 195 69 275 41z m-359 -153 c21 -55 55 -143 74 -194 36 -92 48
-183 26 -197 -5 -3 -10 -15 -10 -26 0 -25 -127 -155 -196 -201 -139 -94 -266
-76 -708 95 -45 17 -108 33 -145 36 l-66 6 66 33 c36 17 73 32 83 32 9 0 26 4
36 10 25 14 150 -20 237 -63 91 -46 276 -107 325 -107 49 0 100 32 162 101 62
69 95 126 97 169 1 19 -19 98 -44 175 -71 219 -69 205 -33 248 l31 37 13 -26
c8 -15 31 -72 52 -128z m466 83 c10 -17 -13 -36 -27 -22 -12 12 -4 33 11 33 5
0 12 -5 16 -11z m64 -49 c0 -5 -7 -10 -15 -10 -8 0 -15 5 -15 10 0 6 7 10 15
10 8 0 15 -4 15 -10z m87 -76 c-3 -3 -12 -4 -19 -1 -8 3 -5 6 6 6 11 1 17 -2
13 -5z m89 -59 c-18 -14 -106 -22 -106 -10 0 11 46 24 85 24 37 0 39 -1 21
-14z m422 -72 c2 -8 -5 -13 -17 -13 -12 0 -21 6 -21 16 0 18 31 15 38 -3z m12
-97 c5 -15 23 -29 45 -36 25 -8 35 -17 31 -26 -3 -8 3 -20 14 -26 23 -15 26
-28 6 -28 -8 0 -17 9 -21 19 -3 11 -16 23 -28 27 -12 4 -34 17 -49 29 -15 13
-33 25 -39 27 -17 6 -3 38 16 38 8 0 20 -11 25 -24z m-580 -50 c0 -8 14 -17
30 -21 36 -8 41 -35 6 -35 -47 0 -76 17 -74 45 3 27 38 37 38 11z m310 -80 c0
-8 -15 -16 -34 -19 -19 -3 -47 -15 -63 -26 -22 -16 -37 -19 -70 -14 -40 5 -52
23 -16 23 9 0 24 7 33 15 32 29 150 46 150 21z m264 -19 c18 -13 17 -15 -9
-35 -21 -16 -41 -22 -82 -22 -48 0 -55 3 -65 26 -10 21 -9 27 3 35 22 14 133
11 153 -4z m-901 -38 c49 -13 39 -29 -16 -22 -49 7 -51 8 -42 22 8 13 11 13
58 0z m1035 -84 c2 -51 1 -55 -15 -46 -32 17 -54 47 -47 65 6 15 34 33 54 35
3 1 7 -24 8 -54z m-325 3 c31 -18 56 -39 57 -45 0 -17 -4 -16 -42 7 -18 11
-46 20 -63 20 -44 0 -75 11 -75 25 0 35 57 31 123 -7z m-5203 3 c7 -15 23 -21
58 -23 44 -3 47 -5 44 -28 -2 -14 -5 -38 -7 -55 -1 -16 -3 -34 -4 -39 -2 -16
-30 28 -31 47 0 22 -5 22 -41 -5 -27 -20 -29 -26 -23 -65 6 -41 5 -43 -18 -43
-13 0 -29 -5 -35 -11 -8 -8 -13 4 -18 47 -5 47 -12 64 -33 81 -21 18 -24 25
-15 34 10 10 17 9 31 -4 38 -34 55 -16 26 28 -9 14 -14 32 -10 40 8 22 63 19
76 -4z m3570 -101 c0 -5 -2 -10 -4 -10 -3 0 -8 5 -11 10 -3 6 -1 10 4 10 6 0
11 -4 11 -10z m-3740 -10 c0 -5 -4 -10 -10 -10 -5 0 -10 5 -10 10 0 6 5 10 10
10 6 0 10 -4 10 -10z m5600 0 c0 -5 -2 -10 -4 -10 -3 0 -8 5 -11 10 -3 6 -1
10 4 10 6 0 11 -4 11 -10z m-1907 -42 c28 -13 35 -32 17 -43 -6 -4 -16 -2 -23
3 -7 6 -23 12 -37 14 -34 4 -40 38 -8 38 13 0 36 -6 51 -12z m-638 -8 c-3 -5
-10 -10 -16 -10 -5 0 -9 5 -9 10 0 6 7 10 16 10 8 0 12 -4 9 -10z m-2805 -8
c0 -13 -12 -22 -22 -16 -10 6 -1 24 13 24 5 0 9 -4 9 -8z m5438 -32 c7 0 12
-4 12 -10 0 -17 -25 -11 -43 10 -23 27 -22 37 1 17 10 -10 24 -17 30 -17z
m-2578 5 c0 -8 -4 -15 -10 -15 -5 0 -12 -11 -16 -25 -3 -14 -10 -25 -15 -25
-11 0 -11 6 0 28 5 9 12 25 15 35 7 21 26 23 26 2z m1149 -4 c13 -23 5 -31
-30 -31 -15 0 -31 -4 -34 -10 -3 -5 -11 -10 -18 -10 -6 0 4 16 23 35 39 40 46
42 59 16z m-1379 -11 c0 -5 -6 -10 -14 -10 -8 0 -18 5 -21 10 -3 6 3 10 14 10
12 0 21 -4 21 -10z m630 -4 c0 -8 -4 -17 -9 -21 -12 -7 -24 12 -16 25 9 15 25
12 25 -4z m340 -2 c0 -17 -22 -14 -28 4 -2 7 3 12 12 12 9 0 16 -7 16 -16z
m-655 -14 c-19 -21 -50 -26 -60 -10 -3 6 5 10 19 10 14 0 28 5 31 10 3 6 11
10 17 10 6 0 3 -9 -7 -20z m425 -25 c0 -8 -4 -15 -9 -15 -13 0 -22 16 -14 24
11 11 23 6 23 -9z m426 0 c-26 -19 -42 -19 -26 0 7 8 20 15 29 15 13 -1 13 -3
-3 -15z m-571 -26 c-4 -5 -16 -9 -28 -9 -21 1 -21 1 -3 15 20 15 41 11 31 -6z
m709 -17 c-13 -19 -55 -23 -61 -5 -6 16 49 44 62 32 6 -6 6 -16 -1 -27z m-284
3 c0 -8 -4 -15 -9 -15 -13 0 -22 16 -14 24 11 11 23 6 23 -9z m180 -14 c-5
-11 -15 -23 -20 -26 -14 -9 -12 19 2 33 19 19 30 14 18 -7z m-212 -61 c2 -42
-7 -50 -28 -25 -14 17 -46 20 -55 5 -11 -18 -35 -11 -35 10 0 15 7 20 29 20
16 0 34 7 41 15 7 8 20 15 30 15 13 0 17 -10 18 -40z m252 20 c0 -5 -7 -10
-16 -10 -8 0 -12 5 -9 10 3 6 10 10 16 10 5 0 9 -4 9 -10z m-50 -30 c0 -5 -4
-10 -10 -10 -5 0 -10 5 -10 10 0 6 5 10 10 10 6 0 10 -4 10 -10z m-730 -15 c0
-16 -9 -19 -34 -9 -25 9 -19 24 9 24 16 0 25 -6 25 -15z m230 5 c-20 -13 -43
-13 -35 0 3 6 16 10 28 10 18 0 19 -2 7 -10z m105 -40 c3 -5 -6 -17 -20 -26
-14 -9 -25 -23 -25 -30 0 -16 39 -34 72 -34 26 0 98 -31 98 -42 0 -10 -92 2
-104 13 -6 5 -20 9 -32 9 -17 0 -21 -4 -17 -20 4 -13 0 -20 -10 -20 -9 0 -18
17 -24 48 -6 26 -13 54 -17 62 -4 10 3 21 21 32 32 20 49 22 58 8z m290 -1
c11 -17 -1 -21 -15 -4 -8 9 -8 15 -2 15 6 0 14 -5 17 -11z m-3615 -19 c0 -5
-5 -10 -11 -10 -5 0 -7 5 -4 10 3 6 8 10 11 10 2 0 4 -4 4 -10z m3785 0 c8
-13 -21 -66 -41 -74 -10 -4 -24 0 -32 8 -12 12 -12 18 4 45 18 31 56 42 69 21z
m-3155 -24 c0 -3 -4 -8 -10 -11 -5 -3 -10 -1 -10 4 0 6 5 11 10 11 6 0 10 -2
10 -4z m-300 -22 c0 -3 -5 -14 -10 -25 -8 -14 -21 -19 -55 -19 -49 0 -53 4
-28 32 15 17 93 27 93 12z m3694 -11 c10 -24 -12 -40 -66 -47 -40 -6 -48 -5
-48 8 0 9 5 16 11 16 6 0 22 9 36 20 31 24 59 26 67 3z m-3455 -25 c16 -16 23
-18 34 -10 13 11 27 7 27 -9 0 -4 -16 -17 -35 -29 -27 -16 -38 -19 -54 -11
-23 13 -28 7 -27 -33 1 -25 6 -31 40 -40 62 -18 56 -34 -11 -32 -52 2 -58 4
-63 26 -5 21 -13 26 -45 28 -77 7 -87 46 -13 48 53 2 68 9 68 31 0 20 29 53
46 53 7 0 22 -10 33 -22z m3312 -1 c-5 -5 -18 -7 -28 -3 -14 6 -15 9 -4 16 19
11 46 1 32 -13z m-3088 0 c41 1 49 -15 17 -35 -12 -7 -17 -18 -13 -28 10 -26
-28 -43 -56 -25 -13 8 -13 12 -1 26 13 15 11 20 -13 37 -31 22 -26 44 7 32 11
-4 38 -7 59 -7z m1567 6 c-1 -10 -36 -53 -44 -53 -12 0 -6 24 11 42 16 18 33
24 33 11z m1720 -23 c0 -5 -4 -10 -10 -10 -5 0 -10 5 -10 10 0 6 5 10 10 10 6
0 10 -4 10 -10z m-173 -26 c6 -19 -14 -32 -59 -39 -49 -7 -57 -1 -43 37 6 16
97 18 102 2z m107 -23 c10 -16 -22 -32 -55 -29 -42 4 -48 23 -12 41 27 15 54
10 67 -12z m87 9 l24 -19 -31 -1 c-35 0 -45 6 -37 26 7 19 16 18 44 -6z
m-4051 1 c0 -5 -13 -23 -30 -41 l-30 -32 0 35 c0 25 5 37 18 40 29 8 42 7 42
-2z m3573 -11 c12 0 29 -5 37 -10 13 -9 13 -11 0 -20 -22 -15 -76 -12 -90 5
-14 17 -3 38 17 31 8 -3 24 -6 36 -6z m-3496 -26 c8 -22 -38 -67 -60 -58 -14
5 -13 10 11 40 30 38 40 41 49 18z m3367 5 c33 -15 24 -29 -19 -29 -35 0 -51
12 -40 30 8 13 28 13 59 -1z m686 -20 c0 -5 -7 -9 -15 -9 -8 0 -15 7 -15 15 0
9 6 12 15 9 8 -4 15 -10 15 -15z m-3490 -9 c0 -5 -4 -10 -10 -10 -5 0 -10 5
-10 10 0 6 5 10 10 10 6 0 10 -4 10 -10z m1700 -25 c0 -9 -9 -15 -25 -15 -16
0 -25 6 -25 15 0 9 9 15 25 15 16 0 25 -6 25 -15z m1330 0 c0 -17 -2 -18 -24
-9 -23 9 -20 24 4 24 11 0 20 -7 20 -15z m-3345 -5 c8 -13 -15 -13 -35 0 -12
8 -11 10 7 10 12 0 25 -4 28 -10z m395 1 c0 -12 -20 -25 -27 -18 -7 7 6 27 18
27 5 0 9 -4 9 -9z m-1129 -11 c10 -6 19 -15 19 -20 0 -14 -34 -12 -48 2 -26
26 -7 37 29 18z m1237 -6 c27 -19 29 -44 3 -44 -10 0 -36 7 -57 16 l-39 16 30
13 c39 17 37 17 63 -1z m-861 -23 c-2 -10 -1 -25 4 -32 9 -16 -9 -55 -21 -43
-5 5 -10 20 -12 34 -3 23 -7 25 -47 24 l-44 -1 22 19 c14 11 39 18 63 18 35 0
40 -3 35 -19z m406 -12 c33 -38 26 -54 -13 -34 -34 18 -44 31 -36 50 8 22 19
18 49 -16z m3386 22 c12 -8 9 -11 -11 -16 -28 -7 -48 -1 -48 16 0 12 40 12 59
0z m-4233 -13 c10 -15 -24 -38 -58 -38 -36 0 -36 15 0 33 34 19 49 20 58 5z
m1139 2 c-3 -5 -10 -10 -16 -10 -5 0 -9 5 -9 10 0 6 7 10 16 10 8 0 12 -4 9
-10z m2815 1 c0 -16 -19 -23 -40 -16 -30 10 -24 25 10 25 17 0 30 -4 30 -9z
m-1214 -38 c-10 -10 -19 5 -10 18 6 11 8 11 12 0 2 -7 1 -15 -2 -18z m-1726 2
c0 -8 -4 -15 -9 -15 -13 0 -22 16 -14 24 11 11 23 6 23 -9z m225 4 c10 -15 -1
-23 -20 -15 -9 3 -13 10 -10 16 8 13 22 13 30 -1z m3046 -15 c11 -14 10 -15
-11 -12 -13 1 -25 9 -28 16 -5 17 23 15 39 -4z m-4661 -4 c0 -5 -9 -10 -21
-10 -11 0 -17 5 -14 10 3 6 13 10 21 10 8 0 14 -4 14 -10z m1700 0 c0 -5 -7
-10 -15 -10 -8 0 -15 5 -15 10 0 6 7 10 15 10 8 0 15 -4 15 -10z m-375 -39 c3
-6 -7 -21 -22 -35 l-28 -26 32 0 c17 0 38 -2 45 -5 9 -4 19 4 26 20 13 28 29
29 46 2 15 -24 -17 -54 -67 -61 -85 -12 -109 -11 -128 2 -15 10 -17 17 -9 27
6 8 10 22 8 31 -5 28 82 68 97 45z m-970 -36 c0 -25 -4 -30 -24 -30 -13 0 -29
8 -35 18 -9 15 -7 21 9 33 30 22 50 13 50 -21z m429 -26 c15 -14 -23 -23 -50
-11 -36 17 -31 35 9 27 17 -4 36 -11 41 -16z m-314 -59 c0 -5 -7 -10 -15 -10
-8 0 -15 5 -15 10 0 6 7 10 15 10 8 0 15 -4 15 -10z m190 -6 c0 -9 8 -23 18
-30 13 -10 14 -15 5 -25 -10 -10 -14 -9 -19 4 -5 15 -8 15 -21 2 -19 -19 -27
-19 -44 1 -11 14 -10 20 14 40 33 28 47 30 47 8z m610 -39 c0 -15 -6 -25 -14
-25 -19 0 -28 14 -20 34 10 25 34 19 34 -9z m-712 -12 c13 -20 13 -23 -2 -29
-17 -6 -66 30 -66 48 0 18 53 3 68 -19z m-191 -60 c-9 -9 -20 -12 -28 -8 -9 6
-8 11 6 21 23 17 42 6 22 -13z m788 7 c3 -5 -1 -10 -10 -10 -9 0 -13 5 -10 10
3 6 8 10 10 10 2 0 7 -4 10 -10z m-1127 -53 c8 -9 1 -21 -28 -44 l-38 -33 0
45 c1 42 3 45 28 45 15 0 32 -6 38 -13z m2081 1 c0 -7 -4 -22 -8 -32 -10 -26
-25 -3 -16 24 7 22 25 28 24 8z m-920 -7 c12 -8 12 -12 2 -25 -14 -16 -42 -21
-54 -9 -7 6 21 43 32 43 3 0 12 -4 20 -9z m1076 -21 c3 -5 -1 -10 -10 -10 -9
0 -13 5 -10 10 3 6 8 10 10 10 2 0 7 -4 10 -10z m-1108 -55 c3 -9 3 -19 -1
-22 -7 -7 -36 16 -36 28 0 15 30 10 37 -6z m3733 -15 c0 -5 -4 -10 -10 -10 -5
0 -10 5 -10 10 0 6 5 10 10 10 6 0 10 -4 10 -10z"/>
<path d="M3870 5080 c0 -5 5 -10 11 -10 5 0 7 5 4 10 -3 6 -8 10 -11 10 -2 0
-4 -4 -4 -10z"/>
<path d="M4437 3884 c-15 -14 -25 -30 -22 -35 10 -16 65 24 65 48 0 19 -12 16
-43 -13z"/>
<path d="M4470 3841 c-14 -27 -13 -31 8 -31 11 0 27 -9 36 -19 18 -20 90 -41
155 -47 54 -4 121 17 121 38 0 21 0 21 -36 8 -47 -18 -244 32 -244 62 0 16
-30 7 -40 -11z"/>
<path d="M1674 2487 c-6 -18 12 -57 27 -57 15 0 7 63 -8 68 -7 2 -16 -3 -19
-11z"/>
<path d="M3583 2593 c-7 -3 -13 -14 -13 -25 0 -14 6 -19 22 -16 13 2 24 10 26
19 3 18 -15 29 -35 22z"/>
<path d="M6090 1815 c0 -8 7 -15 15 -15 8 0 15 7 15 15 0 8 -7 15 -15 15 -8 0
-15 -7 -15 -15z"/>
<path d="M155 690 c-3 -5 -2 -10 4 -10 5 0 13 5 16 10 3 6 2 10 -4 10 -5 0
-13 -4 -16 -10z"/>
<path d="M4130 180 c-6 -11 -19 -20 -30 -20 -24 0 -35 -16 -17 -27 7 -4 16
-16 20 -25 3 -10 11 -18 17 -18 6 0 14 8 17 18 4 9 13 23 20 30 18 18 17 62
-2 62 -8 0 -19 -9 -25 -20z"/>
<path d="M4217 81 c3 -11 13 -21 24 -24 22 -6 23 -3 9 24 -14 25 -40 25 -33 0z"/>
<path d="M877 63 c-4 -3 -7 -11 -7 -17 0 -6 5 -5 12 2 6 6 9 14 7 17 -3 3 -9
2 -12 -2z"/>
<path d="M4468 42 c-46 -28 -35 -42 32 -42 33 0 60 2 60 4 0 10 -48 56 -56 55
-5 0 -21 -8 -36 -17z"/>
<path d="M4155 41 c-3 -5 -1 -12 5 -16 6 -4 8 -11 5 -16 -4 -5 10 -9 29 -9 42
0 43 3 16 30 -21 21 -45 26 -55 11z"/>
<path d="M4085 15 l-30 -13 38 -1 c27 -1 37 3 37 14 0 18 -6 18 -45 0z"/>
<path d="M635 10 c3 -5 11 -10 16 -10 6 0 7 5 4 10 -3 6 -11 10 -16 10 -6 0
-7 -4 -4 -10z"/>
</g>
</svg>
