<svg xmlns="http://www.w3.org/2000/svg" width="48.268" height="54.939" viewBox="0 0 48.268 54.939"><g transform="translate(-31.423 -0.39)"><path d="M79.665,14.146a13.842,13.842,0,0,1-8.364-2.8,13.875,13.875,0,0,1-5.263-8.364,13.948,13.948,0,0,1-.267-2.6H56.8V24.9L56.79,38.328a8.132,8.132,0,1,1-5.578-7.7V21.515a17.652,17.652,0,0,0-2.587-.191A17.2,17.2,0,0,0,35.7,27.1a16.857,16.857,0,0,0,.761,23.244,17.5,17.5,0,0,0,1.621,1.415,17.2,17.2,0,0,0,10.544,3.565,17.652,17.652,0,0,0,2.587-.19,17.144,17.144,0,0,0,9.578-4.79A16.794,16.794,0,0,0,65.829,38.4l-.046-20.049a22.661,22.661,0,0,0,5.038,2.938,22.675,22.675,0,0,0,8.871,1.788V14.144S79.667,14.146,79.665,14.146Z" transform="translate(0)" fill="#fff"/></g></svg>