<svg xmlns="http://www.w3.org/2000/svg" width="54.651" height="43.103" viewBox="0 0 54.651 43.103"><path d="M118.359,87.086a22.911,22.911,0,0,1-6.441,1.717,10.971,10.971,0,0,0,4.932-6.024,22.731,22.731,0,0,1-7.123,2.643,11.358,11.358,0,0,0-8.184-3.433A11.048,11.048,0,0,0,90.333,92.866a10.559,10.559,0,0,0,.29,2.482,32.161,32.161,0,0,1-23.108-11.37A10.569,10.569,0,0,0,66,89.447,10.79,10.79,0,0,0,70.983,98.5,11.4,11.4,0,0,1,65.9,97.14v.138A10.977,10.977,0,0,0,74.9,107.949a11.6,11.6,0,0,1-2.953.383,11.3,11.3,0,0,1-2.108-.2,11.182,11.182,0,0,0,10.476,7.557,22.922,22.922,0,0,1-13.926,4.658,23.577,23.577,0,0,1-2.677-.152A32.448,32.448,0,0,0,80.9,125.09a31.2,31.2,0,0,0,31.9-30.964l-.032-1.409A22.376,22.376,0,0,0,118.359,87.086Z" transform="translate(-63.708 -81.988)" fill="#fff"/></svg>